<?xml version="1.0" encoding="utf-8"?>
<!-- Generator: Adobe Illustrator 26.5.2, SVG Export Plug-In . SVG Version: 6.00 Build 0)  -->
<svg version="1.1" id="Layer_1" xmlns="http://www.w3.org/2000/svg" xmlns:xlink="http://www.w3.org/1999/xlink" x="0px" y="0px"
	 viewBox="0 0 1280 239" style="enable-background:new 0 0 1280 239;" xml:space="preserve">
<style type="text/css">
	.st0{fill:#51D5D3;}
	.st1{fill:#FFFFFF;}
</style>
<g id="Layer_1_1_">
</g>
<path class="st0" d="M509.3,17.9c-0.1,0.2-0.2,0.4-0.4,0.4c-0.4,0.2-0.8,0.3-1.1,0.7c0,0.3,0.3,0.3,0.5,0.4c1.7,0.6,3.4,0.5,5.1,0.1
	c0.8-0.2,1.6-0.4,2.5-0.5c1.1-0.2,2.2-0.3,3.3-0.4c2.6-0.2,5.2-1,7.7-1.6c2-0.5,4-1,6-1.3c1.5-0.2,3-0.6,4.4-1
	c1.6-0.5,3.3-0.8,4.8-1.5c0.1,0,0.2-0.1,0.3-0.1c1.2,0.1,2.3-0.3,3.4-0.5c1-0.1,2-0.1,3,0.4c1.6,0.8,2,2.5,1.3,3.8
	c-0.3,0.6-0.8,1.1-1.3,1.5c-0.6,0.4-1.2,0.8-1.8,1.2c-0.7,0.4-1.4,0.9-2,1.5c-1.2,1.2-2,2.7-2.8,4.2c-0.1,0.2-0.1,0.4-0.3,0.5
	c-0.2,0.1-0.4,0.3-0.6,0.5c-0.8,0.9-1.9,1.2-3,1.3c-0.7,0.1-1.4,0.1-2.1,0.1c-1,0-1.9,0.3-2.8,0.8c-0.4,0.2-0.7,0.5-1.1,0.8
	c-2.4,1.8-5.2,2.8-8.1,3.2c-1.9,0.3-3.7,0.7-5.3,1.7c-1.9,1-3.9,1.7-6,2.2c-2.6,0.6-5.2,1.6-7.7,2.7c-1.8,0.9-3.5,1.9-5.1,3.2
	c-1.1,0.8-1.8,1.9-2.3,3.2c-0.3,0.8-0.5,1.6-0.8,2.4c-0.4,1.2-1.1,2.3-2.1,3.2c-0.4,0.4-0.8,0.9-1.2,1.3c-0.9,0.8-1.3,1.8-1.3,3
	c-0.1,1.2-0.4,2.4-0.7,3.7c-0.3,1.5,0.3,2.9,1.7,3.5c0.4,0.2,0.9,0.4,1.4,0.4c1.4,0,2.8,0.1,4.1-0.2c1.8-0.4,3.7-0.6,5.5-0.9
	c1.6-0.3,3.2-0.6,4.7-1c2.3-0.7,4.7-1,7.1-0.9c2.4,0,4.8-0.4,7.1-1.2c1.9-0.7,3.8-1.2,5.8-1.5c2.3-0.3,4.5-0.9,6.7-1.6
	c0.6-0.2,1.2-0.3,1.8-0.5c0.8-0.2,1.6-0.1,2.4,0.2c0.8,0.4,1.4,0.9,1.7,1.8c0.9,2.4-0.1,4.9-2.2,6.2c-0.7,0.4-1.5,0.8-2.3,1.1
	c-1.1,0.5-2.2,1-3.2,1.7c-1.5,1.1-3.1,1.7-4.9,2.1c-1.1,0.3-2.2,0.6-3.3,1.1c-2.4,1.1-5,1.7-7.6,2.1c-1.8,0.3-3.6,0.6-5.3,1.3
	c-0.8,0.3-1.7,0.6-2.4,1.2c-1.4,0.5-2.7,1-4.1,1.5c-2.6,0.8-5.3,1.7-7.9,2.4c-2.3,0.7-4.5,1.3-6.9,1.6c-1.1,0.1-2.2,0.3-3.2,0.8
	c-0.8,0.4-1.6,0.8-2.3,1.4c-1.3,1-2.6,1.6-4.1,2.3c-1.6,0.7-3.1,1.5-4.6,2.5c-1.8,1.2-3.7,2.1-5.6,3c-1.1,0.5-2.3,1-3.3,1.8
	c-1.3,1-2,2.2-2.3,3.8c-0.2,0.9-0.3,1.8-0.5,2.8c-0.2,1.3-0.7,2.5-1.1,3.7c-0.4,1.2-0.8,2.4-0.7,3.6c0,1,0.2,1.8,0.6,2.7
	c0.6,1.4,1.2,2.8,1.8,4.2c1,2.2,2.3,4.1,4,5.8c1.8,1.7,3.9,2.6,6.3,2.9c1,0.1,2.1-0.1,3-0.3c1.4-0.4,2.7-0.2,3.9,0.7
	c0.2,0.2,0.5,0.3,0.7,0.4c0.8,0.5,1.8,0.9,2.8,0.8c0.8,0,1.6-0.1,2.4-0.2c1.2-0.1,2.3,0,3.4,0.2c1.8,0.5,3.6,0.5,5.4,0.4
	c1.5-0.1,2.9-0.4,4.4-0.6c1.2-0.2,2.3-0.6,3.5-0.8c0.4-0.1,0.9-0.1,1.3-0.1c1.4,0,2.9,0,4.3,0c1.7,0,3.3-0.2,4.9-0.5
	c1.6-0.4,3.3-0.5,4.9-0.6c1.2-0.1,2.5-0.1,3.7-0.2c0.6-0.1,1.2-0.2,1.8-0.3c2.6-0.4,5.2-0.9,7.8-1.2c1.5-0.2,3.1-0.4,4.6-0.4
	c0.7,0,1.3,0.1,1.9,0.4c0.7,0.4,1.1,1,1.2,1.8c0.1,1.5-0.6,2.7-1.7,3.6c-0.7,0.6-1.6,1-2.4,1.5c-1.2,0.7-2.5,1.4-3.7,2.2
	c-1.2,0.8-2.4,1.4-3.6,1.9c-0.8,0.3-1.6,0.7-2.5,1c-1.5,0.6-3,1-4.6,1.1c-2.4,0.2-4.7,0.8-6.8,1.7c-0.7,0.3-1.5,0.6-2.2,1
	c-2,1-4.1,1.5-6.3,1.6c-1.3,0.1-2.5,0.3-3.7,0.7c-2.1,0.6-4.3,0.9-6.4,1c-1.9,0.1-3.8,0.3-5.7,0.4c-0.3,0-0.5,0-0.8,0
	c-2.4-0.1-4.8,0.4-7.1,0.9c-3.2,0.8-6.4,1-9.7,0.4c-2-0.4-4.1-0.3-6.1-0.1c-1.2,0.1-2.3,0.3-3.4,0.4c-1.9,0.2-3.7,0.4-5.5,0.9
	c-3.1,1-6.1,0.6-8.9-0.8c-1.3-0.6-2.5-1.3-3.8-1.9c-1.7-0.8-3-2.1-3.9-3.7c-0.8-1.5-1.6-3.1-2.4-4.6c-0.6-1.1-1.1-2.1-1.8-3.1
	c-1.3-2-2.8-3.9-4.1-5.9c-1.2-1.8-2-3.8-2-6c0-1.1,0.3-2.1,0.6-3.1c0.7-2.6,1.6-5.2,2.2-7.8c0.5-2.1,1.4-4,2.6-5.8
	c0.9-1.5,1.7-3,2.4-4.6c1.5-3.6,3.1-7.2,4.7-10.8c0.4-1,0.7-2.1,0.9-3.2c0.4-2.1,0.3-4.2-0.1-6.4c-0.3-1.6,0.1-3,1-4.3
	c1-1.6,2.4-2.7,4-3.6c1-0.5,1.9-1.1,2.7-1.9c0.2-0.2,0.4-0.4,0.6-0.6c0.7-0.8,1.5-1.5,2.2-2.3c0.8-0.9,1.8-1.5,2.8-2
	c0.6-0.3,1.2-0.6,1.8-0.9c1.8-0.7,3.1-2,4.4-3.4c1-1.1,1.8-2.3,2.6-3.5c0.3-0.4,0.5-0.7,0.7-1.1c1-2.4,0.5-3.6-1.3-4.9
	c-0.4-0.3-0.9-0.5-1.4-0.9c-0.9-0.6-1.7-1.4-2.2-2.4c-1.1-2.3-0.7-5.6,1.9-7c0.4-0.2,0.8-0.4,1.2-0.6c1.7-0.7,3.4-1.3,5.2-1.6
	c1.9-0.4,3.7-1,5.5-1.6c1.7-0.6,3.4-1.3,5.1-1.9c1.9-0.7,3.6-1.9,5.1-3.3c0.4-0.4,0.8-0.8,1.2-1.2c1.1-1.1,2.3-1.7,3.8-2.1
	c1.6-0.4,3.2-0.9,4.8-1.3c1.3-0.4,2.6-0.8,3.9-1c1.4-0.2,2.8-0.3,4.1,0.1C507.6,18.6,508.5,18.2,509.3,17.9L509.3,17.9z"/>
<path class="st0" d="M613.2,36.7c0.3-0.1,0.7-0.2,0.9-0.4c2.3-1.8,4.6-3.5,6.9-5.3c0.7-0.6,1.4-1.2,2.2-1.8c0.6-0.5,1.3-0.7,2.1-0.7
	c0.8,0,1.6,0.1,2.3-0.4c0.2-0.1,0.5-0.1,0.8-0.2c0.2,0.3,0.4,0.6,0.6,1c0,0,0.2,0.1,0.3,0.1c1.2,0.1,2.3-0.1,3.5-0.3
	c1.3-0.2,2.5,0.1,3.7,0.6c1,0.5,1.8,1.2,2.6,2.1c2,2.3,3.2,4.9,3.7,8c0.3,1.9,0.4,3.8,0.7,5.7c0.1,1,0.4,1.9,0.6,2.9
	c0.3,1.7,0.7,3.5,1,5.2c0.1,0.5,0.2,1,0.4,1.6c0.3,1.1,0.3,2.2,0.3,3.3c0,0.8,0,1.7,0,2.5c0,0.8,0.1,1.6,0.2,2.4
	c0.1,1.3,0.1,2.6,0.1,3.9c-0.1,2.3,0,4.6,0,6.9c0,0.9,0.3,1.8,0.4,2.8c0.3,2.2,0.6,4.5,0.9,6.7c0.1,1.1,0.3,2.2,0.4,3.3
	c0.1,0.5,0.1,1.1,0,1.6c-0.4,2.3-0.7,4.7-1.3,6.9c-0.4,1.7-1.1,3.3-1.7,4.9c-0.3,0.7-0.6,1.4-0.9,2.1c-0.7,1.6-0.7,3.4-0.8,5.1
	c-0.1,1.9-0.3,3.7-1,5.5c-0.6,1.8-1,3.6-1.1,5.5c-0.1,1.3-0.4,2.5-1.1,3.7c-0.6,1-1.2,2.1-1.8,3.1c-0.6,1-1.1,2-1.5,3.1
	c-0.5,1.8-1.1,3.7-1.3,5.6c-0.1,0.8-0.3,1.6-0.4,2.4c-0.1,0.8-0.5,1.5-1.2,2c-0.6,0.4-1.1,0.9-1.8,1.2c-1.3,0.8-2.5,1.6-3.4,2.9
	c-1.2,1.7-2.9,2.4-4.8,2.9c-1,0.2-1.9,0.1-2.9-0.3c-0.5-0.2-0.9-0.5-1.2-1c-0.9-1.5-1.3-3.1-1.6-4.8c-0.2-1.3-0.3-2.6-0.5-3.8
	c0-0.4-0.1-0.7,0-1.1c0.3-2.2,0.4-4.3,0.5-6.5c0.1-1.9,0.4-3.8,0.6-5.7c0-0.3,0.1-0.5,0.1-0.8c0-2.1,0-4.3,0.1-6.4
	c0.1-1.9,0.3-3.8,0.4-5.7c0.2-1.9,0.3-3.8,0.4-5.7c0.1-2.7,0-5.3,0.6-8c0.1-0.5,0.1-1.1,0.1-1.6c0.2-2.4,0.4-4.9,0.6-7.3
	c0.1-1.8,0.5-3.5,0.8-5.3c0.1-0.8,0.2-1.7,0.4-2.5c-0.2-0.3-0.4-0.2-0.6-0.2c-0.4,0-0.5-0.4-0.5-0.7c-0.1-0.4,0.1-0.7,0.5-0.9
	c0.2-0.1,0.4-0.1,0.7-0.1c0.4-1.3,0.4-2.7,0.4-4.1c-0.3-0.1-0.6-0.2-0.8-0.2c0,0,0-0.1,0-0.1c0.2,0,0.5,0,0.7,0c0-0.5,0-1,0-1.5
	c0-3.2,0-6.3,0.1-9.5c0-1.6,0.2-3.3,0.2-4.9c0-1.1-0.1-2.2-0.2-3.3c0-0.3-0.1-0.6-0.1-0.9c0-0.8-0.3-1.5-0.5-2.2
	c-0.5-1.3-2-2.4-4-1.6c-0.6,0.2-1.1,0.5-1.6,0.9c-2,1.4-4,2.9-5.9,4.3c-0.7,0.5-1.3,1.2-1.9,1.9c-1.4,1.7-2.5,3.6-3.2,5.8
	c-0.1,0.3-0.2,0.7-0.3,1c-0.4,1.3-1,2.5-1.9,3.5c-1.2,1.4-2.2,3-2.9,4.8c-0.4,0.9-0.8,1.8-1.2,2.7c-0.9,1.7-1.4,3.5-1.6,5.3
	c-0.1,1-0.4,1.9-0.7,2.9c-0.3,1.1-0.7,2.1-1,3.2c-0.4,1.5-0.9,2.9-1.6,4.2c-0.8,1.7-1.3,3.5-1.6,5.3c-0.1,0.8-0.3,1.6-0.5,2.3
	c-0.7,2.7-2.6,4.2-5.1,4.9c-0.8,0.2-1.7,0.2-2.5,0c-1.7-0.4-3.4-1.1-4.9-2c-1.2-0.7-2-1.8-2.6-3c-1-2.1-1.4-4.4-1.2-6.8
	c0.1-1.6,0.3-3.3,0.5-4.9c0-0.5,0.1-1.1,0-1.6c-0.4-3.1-0.5-6.1-0.5-9.2c0-1-0.2-1.9-0.2-2.9c-0.1-1.5-0.2-3-0.1-4.5
	c0-1.8-0.2-3.5-0.5-5.3c-0.1-0.7-0.2-1.4-0.2-2.1c0-1,0-2,0-2.9c0.1-1.7-0.3-3.3-0.9-4.8c-0.5-1.4-1-2.8-1.5-4.1
	c-0.1-0.2-0.2-0.5-0.3-0.6c-0.6-0.3-1-0.6-1.6-0.8c-0.2,0.1-0.4,0.2-0.6,0.4c-0.7,0.8-1.4,1.5-1.5,2.6c0,0.1-0.1,0.2-0.2,0.4
	c-1.4,1.9-2,4-2.4,6.3c-0.3,1.6-0.5,3.2-1.3,4.6c-0.3,0.6-0.6,1.2-0.9,1.8c-0.6,1.2-1.3,2.4-1.9,3.7c-0.4,0.9-0.6,1.8-0.8,2.8
	c-0.4,2.1-0.8,4.1-1.6,6c-0.3,0.6-0.5,1.2-0.5,1.9c0,0.1,0,0.3-0.1,0.4c-0.6,1.2-0.7,2.5-0.9,3.7c-0.2,1.2-0.4,2.4-0.2,3.7
	c0.3,1.8-0.1,3.6-0.9,5.3c-0.5,1.1-1,2.2-1.5,3.3c-0.6,1.4-1,3-1,4.5c0,2.8-1.1,5.1-3,7.1c-0.2,0.2-0.4,0.5-0.7,0.7
	c-1.5,1.3-3.5,1.1-4.7-0.4c-0.3-0.4-0.6-0.9-0.8-1.4c-0.6-1.3-0.9-2.6-1-4c0-0.3-0.1-0.5-0.1-0.8c0-0.1-0.1-0.3-0.1-0.4
	c0.4-1.3,0.4-2.6,1-3.8c0.8-1.7,1.5-3.4,2-5.2c0.4-1.5,0.6-3,0.5-4.5c-0.1-1.9,0-3.8,0.5-5.7c0.8-3.2,1.7-6.3,2.9-9.3
	c0.5-1.2,0.8-2.4,1.2-3.7c0.7-2.6,1.5-5.1,2.2-7.7c0.5-1.9,1.1-3.8,1.6-5.8c0.3-1.3,0.5-2.7,0.7-4.1c0.1-1,0.5-2,1-2.9
	c1.5-2.5,2.5-5.3,3.5-8.1c1-2.7,2.1-5.4,3.3-8c0.5-1.1,1.2-2.2,1.8-3.3c0.7-1.2,1.3-2.3,2-3.5c0.3-0.5,0.5-1,0.8-1.5
	c0.4-0.6,0.8-1.3,0.8-2.1c0.8-0.3,1.5-0.6,1.8-1.5c1.6-1.3,3-2.9,5-3.6c1.5-0.5,3-0.8,4.5-0.6c2.1,0.4,3.8,1.5,4.7,3.6
	c0.3,0.7,0.5,1.5,0.7,2.3c0.3,1.3,0.6,2.5,1.2,3.7c1.2,2.5,1.8,5.1,1.6,7.9c0,0.8,0,1.6,0,2.4c0,1.8,0.1,3.6,0.2,5.5
	c0.1,1.1,0.2,2.2,0.4,3.3c0.3,2.4,0.6,4.9,0.5,7.3c0,1.4,0.2,2.8,0.6,4.2c0.1,0.5,0.3,0.9,0.5,1.4c0.2,0.5,0.6,0.8,1,1
	c0.4,0.2,0.8,0.2,1.2,0c0.9-0.4,1.6-0.9,2.3-1.6c1.5-1.7,2.8-3.5,3.6-5.6c0-0.1,0.1-0.2,0.2-0.4c0.6-2,1.9-3.3,3.8-4
	c1.3-0.5,2.4-1.3,3.5-2.2c1.7-1.5,3.5-2.8,5.4-4.1c0.4-0.3,0.8-0.5,1.1-1c0,0,0-0.1,0-0.1l0-0.1L613.2,36.7z"/>
<path class="st0" d="M660.9,64c0-0.1,0-0.2,0.1-0.2c0.6-0.5,0.8-1.2,1-1.9c0.5-2.3,0.9-4.5,0.8-6.9c-0.1-2,0-4.1,0.4-6.1
	c0.2-0.9,0.2-1.8,0.3-2.6c0.1-1,0.3-2,0.4-3c0-0.3,0-0.6,0-0.9c-0.9-0.6-0.9-0.6-0.4-1.6c0.2,0,0.4,0,0.6,0c0.9-1.9,1.6-3.9,1.7-6
	c0.1-1.6,0.6-3,1.6-4.2c1-1.3,2.1-2.6,3.2-4c1.2-1.5,2.9-2.4,4.8-2.6c0.8-0.1,1.6-0.2,2.4-0.3c0.3-0.1,0.6-0.3,1-0.4
	c0.3,0.3,0.6,0.5,1.1,0.5c1.7-0.1,3,0.7,4.2,1.7c1.8,1.6,3.4,3.5,4.5,5.7c0.4,0.8,0.9,1.5,1.3,2.3c1.1,2,1.9,4.1,2.6,6.3
	c0.7,2.2,1.4,4.4,2.1,6.6c0.4,1.3,0.8,2.5,1.3,3.8c0.8,1.9,1.7,3.7,2.5,5.6c0.2,0.4,0.4,0.7,0.6,1c1.1,1.6,3,2,4.7,1
	c0.9-0.5,1.7-1.2,2.3-2c0.9-1.1,2-2.1,3.1-3c1.8-1.5,3.5-3,5.1-4.7c2.3-2.2,4.6-4.3,7.2-6.1c1.3-0.9,2.6-1.7,4-2.4
	c1.6-0.8,3.3-1,5-1.2c1.5-0.2,2.9-0.5,4.4-0.6c1.6-0.2,3.2-0.2,4.7,0.4c1.2,0.4,2.1,1.1,3,1.9c1.5,1.4,2.8,3,3.7,4.8
	c0.3,0.6,0.5,1.2,0.7,1.9c0.9,3,1.3,6.1,1.3,9.2c0,1.8,0.2,3.6,0.3,5.5c0.1,1.6,0.3,3.3,0.2,4.9c-0.1,1.8,0,3.6-0.4,5.4
	c-0.1,0.5-0.1,1-0.1,1.5c0,0.6-0.1,1.2-0.1,1.9c0,0.5-0.1,1.1,0,1.6c0.3,2-0.2,3.7-1.2,5.3c-0.1,0.2-0.2,0.3-0.3,0.4
	c-1.2,1.5-1.7,3.3-2,5.2c-0.1,0.6-0.1,1.2-0.3,1.8c-0.3,1-0.3,1.9-0.2,2.9c0.1,2.6-0.3,5.2-0.7,7.8c-0.1,0.7-0.3,1.4-0.5,2.1
	c-0.1,0.8-0.2,1.6-0.3,2.4c-0.1,0.9-0.1,1.9-0.3,2.8c-0.1,0.5-0.2,1-0.4,1.4c-0.7,1.6-1.2,3.2-1.5,5c-0.1,0.6-0.3,1.2-0.6,1.8
	c-0.7,1.6-1,3.2-1.4,4.9c-0.3,0.9-0.6,1.8-0.9,2.6c-0.6,1.5-1.3,2.9-1.6,4.5c0,0.3-0.2,0.5-0.3,0.8c-0.1,0.3-0.2,0.6-0.2,0.9
	c-0.1,0.9-0.1,1.8-0.2,2.7c-0.2,2.1-1.3,3.7-3.1,4.7c-0.9,0.5-1.4,1.2-1.7,2.1c-0.2,0.7-0.4,1.5-0.6,2.2c-0.2,0.6-0.3,1.1-0.5,1.7
	c-0.6,1.7-1.9,2.8-3.6,3.3c-0.5,0.1-0.9,0.3-1.4,0.4c-0.4,0.1-0.8,0.2-1.2,0.1c-0.8,0-1.6,0.1-2.4,0.4c-0.9,0.3-1.8,0.5-2.7,0.4
	c-1.5-0.2-2.5-1.1-3.3-2.3c-0.2-0.3-0.4-0.7-0.5-1.1c-0.3-1.2-0.5-2.4-0.7-3.7c-0.1-0.6,0.2-1.2,0.4-1.8c0.2-0.6,0.4-1.2,0.6-1.8
	c0.5-1.7,0.5-3.3,0.2-5c-0.3-1.6-0.2-3.1,0.5-4.6c0.2-0.4,0.3-0.7,0.5-1.1c0.6-1.2,0.9-2.4,1.1-3.7c0.2-1.4,0.6-2.8,1.2-4.1
	c1-2,1.4-4.1,1.3-6.3c0-0.5-0.1-1-0.1-1.4c0-2,0.9-3.7,1.3-5.6c0.6-2.4,1.2-4.7,1.7-7.1c0.3-1.8,0.3-3.6-0.3-5.3
	c-0.7-1.9-0.5-3.5,0.6-5.2c1.2-2,1.6-4.2,1.3-6.5c-0.2-1.1,0.1-2.1,0.4-3.1c0.3-1,0.6-2,0.9-2.9c0.3-0.7,0.3-1.5,0.2-2.2
	c-0.1-0.6-0.1-1.2,0-1.8c0.2-1.6,0.4-3.2,1-4.8c0.6-1.6,1-3.2,0.9-4.9c0-0.5-0.1-1-0.3-1.4c-0.5-1.3-1.9-2.1-3.5-1.1
	c-0.6,0.3-1.2,0.8-1.6,1.4c-0.6,0.8-1.2,1.5-1.8,2.3c-0.9,1.2-2,2.1-3.3,2.9c-0.7,0.5-1.5,0.9-2.2,1.3c-2.1,1.4-3.9,2.9-5.4,5
	c-0.1,0.1-0.1,0.1-0.2,0.2c-0.4,0.6-0.3,1.5-1.2,1.8c-0.4,0.6-0.9,1.1-1.3,1.7c-0.5,0.6-0.9,1.2-1.4,1.8c-1.2,1.3-2.5,2.5-3.8,3.7
	c-0.9,0.8-2,1.2-3.1,1.4c-1.3,0.2-2.7,0.1-4-0.1c-0.7-0.1-1.5-0.4-2.1-0.9c-0.7-0.6-1.5-1.1-2.2-1.8c-1.1-1.1-2.4-1.9-3.8-2.7
	c-0.3-0.2-0.7-0.3-1.1-0.5c-0.8-0.2-1.5,0-1.9,0.7c-0.2,0.4-0.4,0.8-0.5,1.2c-0.2,1.6-0.5,3.3-0.6,4.9c-0.1,1.3-0.3,2.6-0.6,3.8
	c-0.7,2.9-1.1,5.9-1.4,8.8c0,0.2,0,0.4,0,0.7c0.1,2.4-0.6,4.7-1.4,6.9c-0.5,1.2-1.1,2.3-1.9,3.2c-1.5,1.8-2.4,3.8-2.6,6.2
	c-0.1,1.2-0.3,2.5-0.6,3.7c-0.1,0.7-0.3,1.3-0.5,1.9c-0.7,1.9-2.7,3.1-4.5,2.9c-1.1-0.1-2-0.5-2.7-1.2c-1.3-1.3-2.5-2.6-3.7-4
	c-0.6-0.7-1-1.6-1.1-2.5c-0.1-0.9-0.2-1.9-0.3-2.8c-0.1-1.6-0.6-3.1-0.9-4.6c-0.4-2.1-0.7-4.1-1.1-6.2c0-0.3,0-0.5,0-0.8
	c0-0.6,0.1-1.3-0.1-1.9c-0.2-0.7,0.1-1.2,0.1-1.8c0-1.6,0.2-3.3,0.4-4.9c0.2-1.3,0.3-2.6,0.2-3.9c0-1.4,0.2-2.7,0.6-3.9
	c0.4-1.5,0.7-3,0.7-4.6c0-2,0-3.9,0.1-5.9c0.1-1.6,0.3-3.3,0.4-4.9c0-0.4,0.1-0.8,0.1-1.2c-0.4-0.2-0.7-0.5-1.1-0.7
	C660.2,64.2,660.5,64,660.9,64c0.1,0.1,0.1,0.2,0.2,0.3c0,0,0.2,0,0.3-0.1c0-0.1-0.1-0.2-0.1-0.2C661.1,64,661,64,660.9,64z"/>
<path class="st0" d="M777.7,30.5c1.5-1.3,3.2-2,4.9-2.6c1.6-0.6,3.2-1.1,4.8-1.7c1.4-0.5,2.8-1.1,4.2-1.7c1.3-0.5,2.7-0.8,4.2-0.5
	c1.1,0.2,2.3,0.4,3.4,0.5c1.4,0.1,2.8,0.1,4.1,0.1c0.3,0,0.5-0.1,0.8-0.1c2.1,0.1,4.2-0.3,6.2-0.6c0.4-0.1,0.9-0.1,1.3-0.2
	c0.5,0,0.9-0.1,1.4-0.4c0.4-0.4,1-0.4,1.5,0c0.4,0.3,0.8,0.3,1.3,0.3c0.9-0.1,1.9-0.2,2.8-0.2c2-0.1,4-0.1,6-0.1
	c1.5,0,2.9-0.3,4.4-0.6c1.7-0.3,3.3-0.8,5-1c1.6-0.2,3.3-0.1,4.9-0.1c1.1,0,1.9,0.7,2.6,1.6c0.1,0.7,0,1.4,0.2,2.1
	c0.2,0.6,0.1,1.2-0.1,1.7c-0.5,1.3-1,2.7-1.5,4c-0.7,1.7-2,2.9-3.6,3.6c-2.3,1.1-4.7,1.6-7.4,1.5c-3-0.1-6.1-0.2-9.1,0.2
	c-0.4,0.1-0.9,0.1-1.3,0c-1.1-0.1-2.2-0.3-3.3-0.4c-1.4-0.2-2.8,0-4.2,0.4c-1.5,0.4-3.1,1-4.6,1.3c-0.4,0.1-0.5,0.5-0.9,0.5
	c-0.4,0-0.7,0.1-0.9,0.4c-0.2,0.2-0.5,0.2-0.7,0.1c-0.3-0.2-0.5-0.3-0.9-0.2c-1.5,0.3-3,0.6-4.5,1.1c-2.2,0.8-4,2.1-5.3,4.1
	c-1.9,2.9-3.5,5.9-4.4,9.2c-0.5,1.9-1.3,3.8-2.2,5.6c-0.6,1.2-1,2.5-1.4,3.7c-0.2,0.7-0.3,1.3-0.2,2c0,1.3,0.9,2.4,2.2,2.6
	c1.2,0.2,2.3,0.4,3.6,0.2c1.7-0.3,3.4-0.4,5-0.6c0.3,0,0.6,0,0.9,0c1.7,0.1,3.4,0.3,5,0.4c1.1,0,2.1-0.1,3.2-0.2
	c0.3,0,0.5-0.1,0.8-0.1c1.3,0.1,2.6-0.1,3.9-0.3c1.4-0.2,2.9-0.3,4.3-0.6c1-0.2,1.9-0.6,2.8-0.9c0.5-0.2,1.1-0.4,1.7-0.5
	c2.2-0.4,4.7,1.4,4.6,4c0,0.4,0,0.8,0.1,1.2c0.2,0.6,0.1,1.2-0.1,1.8c-0.4,1.2-1,2.3-1.9,3.2c-1.2,1.2-2.4,2.2-3.8,3.2
	c-0.6,0.5-1.4,0.8-2.1,1.1c-2.4,0.7-4.9,0.9-7.4,0.6c-2-0.2-4.1-0.4-6.1-0.3c-0.4,0-0.8,0.1-1.2,0.2c-3.1,0.5-6.3,0.6-9.4,0.5
	c-1.7-0.1-3.3,0.3-4.9,0.8c-2.9,0.9-5.8,1.9-8.8,2.8c-0.6,0.2-1.2,0.4-1.8,0.7c0.1,0.2,0.2,0.4,0.3,0.5c-0.4,0.5-0.7,1.1-1.1,1.6
	c-0.1,0.1-0.4,0-0.7,0c0.2-0.5,0.4-0.8,0.5-1.1c-0.2-0.2-0.4-0.1-0.5,0c-1,0.9-1.7,2-2,3.2c-0.5,1.8-0.9,3.5-1.3,5.3
	c-0.1,0.5-0.1,1-0.1,1.5c-0.1,2.6-0.2,5.2-0.3,7.7c0,1,0.2,2,0.5,3c0.5,1.3,1.4,2.4,2.6,3.1c3.8,2.3,7.9,3.9,12.3,4.7
	c2.2,0.4,4.3,0.5,6.5,0.5c0.4,0,0.7-0.1,1.1-0.1c0.6,0,1.3-0.1,1.9-0.1c1.7,0.2,3.3,0.4,5,0.8c1.4,0.4,2.9,0.6,4.4,0.3
	c0.7-0.1,1.5-0.2,2.3-0.1c1.6,0.1,3.2-0.2,4.8-0.5c2.2-0.5,4.4-0.7,6.6-1.1c2.7-0.5,5.4-0.9,8-1.9c1.2-0.5,2.5-0.7,3.7-1
	c1.1-0.3,2.3-0.5,3.3-0.9c2.2-0.8,4.4-1.4,6.7-1.9c2.8-0.6,5.5-1.4,8.2-2.5c0.7-0.3,1.4-0.3,2.1-0.3c0.6,0,1.1,0.2,1.5,0.4
	c1.4,0.9,2.4,2.1,3.1,3.6c0.2,0.4,0.3,0.9,0.2,1.3c-0.4,1.1-0.3,2.3-0.6,3.4c-0.4,2.4-1.6,4.4-3.6,5.8c-1.4,1-2.9,1.8-4.3,2.6
	c-1,0.6-2,1.1-3,1.5c-1,0.4-2,0.6-3.1,0.7c-1.9,0.2-3.9,0.4-5.8,0.8c-0.6,0.1-1.1,0.2-1.7,0.2c-3.5,0.2-6.9,0.5-10.3,1.5
	c-1,0.3-2.1,0.5-3.1,0.8c-0.9,0.2-1.7,0.5-2.5,0.9c-1.6,1-3.4,1.2-5.3,1c-1-0.1-2.1-0.3-3.2-0.1c-0.8,0.1-1.6,0.3-2.3,0.7
	c-1.3,0.6-2.6,1.2-3.9,1.7c-1.5,0.5-2.9,0.7-4.4,0.7c-1.5,0-3,0-4.5-0.3c-1.4-0.2-2.8-0.4-4.2-0.5c-1.6-0.1-3.2-0.6-4.7-1.1
	c-2.4-0.9-4.9-1.1-7.5-0.6c-1.7,0.3-3.4,0.1-4.9-0.9c-0.9-0.6-1.7-1.1-2.6-1.7c-2.2-1.4-4.5-2.3-7.1-2.4c-1,0-2,0-3-0.3
	c-1.6-0.5-3.2-1-4.8-1.5c-1.5-0.5-2.5-1.6-3.2-3.1c-1-2.1-1.6-4.2-2-6.5c-0.2-1.1-0.4-2.2-0.5-3.3c-0.2-1.1,0.1-2.2,0.5-3.3
	c1.2-3.2,1.9-6.6,3.1-9.8c0.2-0.7,0.4-1.4,0.6-2.1c0.3-1.3,0.7-2.7,1.3-3.9c0.9-1.9,1.1-3.9,1.4-5.9c0.2-1.3,0.6-2.5,1.3-3.6
	c1.7-2.9,3.4-5.8,5.1-8.7c0.7-1.2,1.5-2.3,2.3-3.4c1.2-1.6,2.1-3.2,2.4-5.1c0.2-1.3,0.7-2.5,1.3-3.6c0.4-0.7,0.7-1.5,0.9-2.2
	c0.6-1.7,1.2-3.4,1.9-5.1c0.6-1.7,1-3.4,1.4-5.1c0.2-1.1,0.7-2,1.5-2.8c0.7-0.7,1.5-1.4,2.1-2.3c0.6-1,1-2.1,1-3.3
	c0-1.2-0.1-2.3-0.2-3.5c-0.2-1.9,0.1-3.7,1.1-5.4C777.6,30.7,777.7,30.5,777.7,30.5z"/>
<path class="st0" d="M670.4,179.9c-0.4-0.7-0.7-1.4-1.2-2c-0.3-0.4-0.5-0.8-0.8-1.2c-0.6-0.9-0.7-1.9-0.6-2.9
	c0.2-1.8,0.3-3.5,0.6-5.3c0.2-1.6,0.4-3.3,0.7-4.9c0.1-1.1,0.3-2.1,0.4-3.1c-0.3-0.2-0.4-0.1-0.6,0.1c-0.1,0.1-0.1,0.3-0.1,0.4
	c0,0.5-0.1,0.9-0.5,1.1c-0.8,0.5-1.3,1.3-1.7,2c-0.9,1.5-1.8,2.8-2.9,4.1c-0.7,0.9-1.6,1.7-2.3,2.5c0,0-0.1,0.1-0.1,0.1
	c-0.9,0.5-1.9,1-2.8,1.4c-0.8-0.3-1.5-0.7-2.1-1.2c-0.2-0.2-0.4-0.4-0.6-0.5c-1.4-0.5-2-1.7-2.5-2.9c-0.6-1.3-1.2-2.5-2-3.6
	c-0.1-0.1-0.3-0.3-0.4-0.3c-0.2,0-0.3,0.2-0.3,0.4c0,0.7,0,1.4,0.1,2.1c0,0.3,0.1,0.6,0.1,0.9c0,1.5-0.1,3-0.1,4.5
	c0,0.4,0.1,0.9,0.1,1.3c0.1,0.8,0,1.6-0.4,2.3c-0.3,0.6-0.4,1.2-0.4,1.8c0,0.3,0,0.6-0.5,0.8c-0.2-0.1-0.5-0.2-0.7-0.4
	c-0.6-0.6-1.2-1.3-1.9-1.9c-0.2-0.2-0.4-0.5-0.4-0.8c-0.1-1-0.2-2-0.2-3.1c0-1.4-0.1-2.8,0-4.1c0.2-1.7,0.2-3.5,0.1-5.2
	c-0.1-2-0.1-3.9-0.1-5.9c0-0.9,0.1-1.8,1-2.3c-0.2-1.7-0.3-1.4,1.3-1.9c0.9-0.3,1.7-0.1,2.3,0.6c0.5,0.7,1,1.5,1.5,2.2
	c1,1.6,1.9,3.2,2.8,4.8c0.7,1.3,1.4,2.6,2.1,3.9c0.7,1.4,1.4,2.8,2.2,4.1c0.5,0.7,0.7,0.7,1.4,0.2c0.9-0.7,1.8-1.4,2.4-2.4
	c0.8-1.2,1.7-2.3,2.3-3.7c0.2-0.4,0.5-0.7,0.9-1c0.6-0.7,1.4-1.3,1.9-2.1c0.3-0.4,0.7-0.8,1.1-1.1c0.4-0.4,0.8-0.8,1.3-1.3
	c0.2,0,0.5,0.1,0.9,0.1c0.3-0.2,0.6-0.4,1-0.7c0.9,0.5,1.2,1.4,1.3,2.3c0.4,2,0,3.9-0.2,5.8c0,0.1-0.1,0.2-0.1,0.3
	c0.2,1.5-0.2,3-0.2,4.5c0,1.4,0,2.7-0.3,4.1c-0.1,0.2,0,0.5,0,0.7c0.2,0.7-0.1,1.4-0.4,2.1c-0.2,0.4-0.5,0.8-0.6,1.2
	c-0.2,0.6-0.6,1-0.6,1.7C671.4,179.1,671.1,179.8,670.4,179.9z"/>
<path class="st1" d="M447.4,224.5c-0.2,0.4-0.5,0.7-0.9,0.7c-0.4,0-0.7-0.1-1-0.4c-1.1-0.9-2.1-1.7-3.1-2.7c-0.4-0.4-1-0.6-1.5-0.8
	c-0.4-0.1-0.7-0.3-1-0.6c-0.3-0.4-0.7-0.6-1.1-0.9c-1.2-0.7-2.1-1.8-2.8-2.9c-0.6-0.9-1.1-1.8-1.6-2.7c-0.1-0.2-0.2-0.3-0.2-0.5
	c-0.5-1.2-1-2.5-1.4-3.7c-0.5-1.7-0.8-3.4-0.6-5.2c0.2-1.4,0.5-2.8,0.6-4.2c0.6-1.7,1-3.4,1.9-5c1-1.7,2.2-3.3,3.4-4.9
	c0.4-0.5,0.9-1,1.4-1.4c0.3-0.3,0.6-0.5,0.9-0.8c1-1.1,2.1-2,3.2-3c0.6-0.4,1.1-0.9,1.6-1.4c1.1-0.8,2.2-1.7,3.3-2.5
	c0.2-0.2,0.5-0.3,0.7-0.3c0.7-0.1,1.5-0.3,2.1-0.7c0.4-0.2,0.8,0.1,0.7,0.6c0,0.3-0.2,0.6-0.5,0.8c-0.6,0.3-0.9,0.8-1.1,1.4
	c-0.1,0.2-0.2,0.4-0.4,0.5c-0.8,0.4-1.1,1.2-1.5,1.9c-0.4,0.6-0.9,1.2-1.3,1.8c-0.9,0.3-1,1.2-1.4,1.8c-0.2,0.4-0.3,0.7-0.6,1
	c-0.8,0.8-1.1,1.8-1.6,2.7c-0.4,0.8-0.8,1.5-1,2.4c-0.1,0.5-0.5,0.9-0.8,1.4c-0.3,0.6-0.5,1.2-0.6,1.9c-0.1,0.8-0.4,1.5-0.6,2.3
	c-0.4,1.5-0.4,3-0.3,4.5c0.1,1.7,0.2,3.3,0.7,5c0.6,2.3,1.3,4.6,2.4,6.8c1.2,2.3,2.3,4.7,3.8,6.9
	C447.3,224.3,447.3,224.3,447.4,224.5z"/>
<path class="st0" d="M764.7,172.6c-0.3,0.8-0.2,1.7,0,2.5c0.3,1.4,0.1,2.8-0.1,4.1c-0.1,1-0.2,1.8,0.5,2.5c-0.1,0.6-0.5,0.7-0.9,0.6
	c-0.7-0.2-1.5-0.4-2.1-0.9c-0.3-0.2-0.6-0.4-0.9-0.6c-0.7-0.5-1.2-1.1-1.3-1.9c-0.2-1.1-0.5-2.3-0.4-3.4c0-0.4,0-0.7,0-1.1
	c-0.1-1-0.1-2-0.2-3.1c-0.1-1.1-0.2-2.1-0.4-3.2c-0.2-1.5-0.3-3-0.2-4.5c0-0.3,0.1-0.5,0-0.8c-0.2-0.8,0-1.6,0.1-2.4
	c0.1-0.5,0.3-0.9,0.7-1.3c0.7-0.7,1.2-0.8,2.1-0.5c1.1,0.4,2.1,1.1,2.7,2.1c0.7,1.2,1.7,2.1,2.5,3.2c1.4,1.9,2.9,3.8,4.4,5.7
	c0.7,0.9,1.4,1.8,2.1,2.8c0.2,0.2,0.4,0.3,0.7,0.6c0.1-0.3,0.3-0.5,0.3-0.8c0.1-1.5,0.2-3,0.3-4.5c0.1-0.9,0.1-1.9,0.2-2.8
	c0.1-1.2,0.1-2.3,0.1-3.5c0-1,0.1-2,0.2-2.9c0.1-1.1,0.8-1.6,1.9-1.6c0.2,0,0.4,0.1,0.6,0.2c0.6,0.4,1.1,1,1.2,1.7
	c0.2,0.7,0.3,1.4,0.3,2.1c0.1,1.2,0.2,2.4,0,3.6c-0.2,1.3,0.1,2.7-0.1,4c-0.1,0.9-0.1,1.8-0.2,2.6c0,0.3-0.1,0.6-0.3,0.9
	c-0.4,0.6-0.5,1.3-0.7,2c-0.2,0.6-0.5,1.2-0.7,1.7c-0.4,1.1-1.2,1.5-2.3,1.6c-0.9,0.1-1.8,0.2-2.6,0.3c-0.5,0-1-0.1-1.4-0.2
	c-1.2-0.4-2.2-1.2-3-2.1c-0.6-0.7-1.3-1.3-1.8-2.1c-0.2-0.3-0.5-0.5-0.8-0.7C765.1,172.6,764.9,172.6,764.7,172.6z"/>
<path class="st0" d="M437.5,174c0.4-0.1,0.6-0.2,0.9-0.5c0.6-1,1.2-2,1.8-3c1-1.6,1.7-3.4,2.5-5.1c-0.3-0.5-0.7-0.8-1.1-1
	c-0.6-0.4-1.1-0.9-1.4-1.5c-0.6-1-1.2-2.1-1.8-3.1c-0.7-1.2-1.1-2.5-1.3-3.9c-0.1-0.9,0.2-1.9,1-2.5c0.5-0.4,1-0.8,1.6-1.3
	c0.8,0,1.5,0.4,2.1,1c0.9,0.9,1.8,1.8,2.4,3c0.5,0.9,1.1,1.8,1.7,2.7c0.3,0,0.3-0.2,0.4-0.4c0.5-1,0.8-2.1,1.2-3.1
	c0-0.1,0.1-0.2,0.1-0.2c0.2-0.3-0.1-0.7,0.2-1c0.5-0.6,0.9-1.3,1.6-1.8c0.8-0.5,1.5-1.3,2.5-1.6c0.3-0.1,0.5-0.4,0.8-0.6
	c0.2,0.3,0.3,0.5,0.4,0.8c0.2,1,0.2,2-0.1,3c-0.3,0.8-0.4,1.7-0.7,2.6c-0.1,0.3-0.3,0.7-0.4,1c-0.8,1.4-1.6,2.9-2,4.5
	c-0.3,1.2-0.5,2.4-1,3.6c-0.5,1.4-0.9,2.9-2.2,3.9c-1,0.8-1.4,1.9-2.1,2.9c-1.1,1.7-2.1,3.4-3.2,5.1c-0.9,1.4-2,2.8-3,4.1
	c-0.5,0.6-1.1,1-1.7,1.6c-0.9,0-1.7,0.1-2.6,0.1c-0.5,0-0.8-0.4-0.8-0.9c0-0.5,0.3-0.9,0.6-1.3c0.8-1.1,1.6-2.2,2.4-3.4
	c0.5-0.7,0.9-1.6,1.3-2.3C437.7,174.7,437.6,174.4,437.5,174z"/>
<path class="st0" d="M475.6,152c-0.8,0.4-1.2,1.1-1.4,1.9c-0.1,0.4-0.4,0.5-0.6,0.8c-0.1,0.4,0,0.7,0.3,1c0.7,0.7,1.3,1.4,2,2.1
	c1.4,1.3,2.8,2.5,4.2,3.7c0.7,0.6,1.2,1.4,1.5,2.3c0.2,0.7,0.6,1.3,0.6,2c0,0.2,0.1,0.4,0.3,0.6c0.5,0.4,0.4,1,0.6,1.4
	c0.1,0.2-0.1,0.6-0.2,0.8c0,1-0.3,1.9-0.6,2.8c-0.3,0.8-0.6,1.6-1,2.3c-0.5,1.1-1.3,2-2,3c-0.1,0.2-0.3,0.3-0.5,0.4
	c-0.8,0.5-1.6,1-2.5,1.5c-0.6,0.3-1.3,0.7-2,0.7c-0.7,0-1.3-0.1-1.8-0.7c-0.8-1.2-2-1.8-3.3-2.3c-0.7-0.2-1.3-0.5-1.9-1
	c-0.3-0.3-0.6-0.5-1-0.6c-0.2,0-0.3-0.1-0.5-0.3c-0.5-0.5-1.1-1.1-1.5-1.7c-0.7-0.9-0.5-2,0.5-2.5c0.3-0.2,0.7-0.2,1-0.2
	c1.2,0.3,2.4,0.6,3.5,1.2c0.9,0.6,2,0.9,3.1,1.3c0.4,0.2,0.8,0.3,1.2,0.5c0.2,0.6,0.4,1.1,0.6,1.6c0.1,0.2,0.2,0.3,0.3,0.4
	c0.1,0.1,0.4,0.1,0.5,0.1c0.5-0.3,1.3,0.4,1.7-0.3c0.7-1.2,1.4-2.3,1.3-3.7c0-0.7-0.4-1.4-0.7-2.1c-0.2-0.6-0.5-1.2-0.7-1.7
	c-0.3-0.7-0.8-1.3-1.3-1.8c-0.6-0.7-1.4-1.3-2.1-1.9c-0.4-0.3-0.9-0.5-1.4-0.7c-0.6-0.1-1.1-0.5-1.6-0.9c-1-0.8-1.9-1.7-2.6-2.8
	c0.4-2.5,1.6-4.5,3.3-6.2c0.5-0.5,1-0.9,1.5-1.3c0.3-0.2,0.5-0.5,0.9-0.6c0.5-0.2,0.9-0.5,1.3-0.9c0.2-0.2,0.5-0.4,0.8-0.5
	c0.4-0.2,0.8-0.2,1.2-0.1c1,0.3,2,0.5,2.8,1.1c0.2,0.1,0.4,0.3,0.6,0.3c1,0.3,1.5,1.1,2,1.8c-0.2,0.4-0.4,0.5-0.8,0.5
	c-0.4-0.1-0.9-0.2-1.1-0.6c-0.3-0.5-0.7-0.6-1.2-0.8c-0.7-0.2-1.4-0.4-2.1-0.6C476.5,151.4,476.1,151.7,475.6,152
	C475.6,152,475.6,152,475.6,152z"/>
<path class="st0" d="M730.7,154.5c0.4,0.6,0.8,1.2,1.5,1.5c0.3,0.1,0.4,0.4,0.5,0.8c0.1,1.1-0.4,1.9-1,2.7c-0.1,0.1-0.3,0.2-0.5,0.2
	c-0.5,0.2-1.1,0.3-1.6,0.6c-0.8,0.5-1.6,0.4-2.4,0.2c-0.9-0.2-1.8-0.2-2.7,0.2c-0.3,0.5,0.3,0.4,0.4,0.8c-0.1,0.1-0.3,0.3-0.5,0.5
	c0.1,2.3-0.3,4.6-0.7,6.9c-0.2,1.3-0.3,2.6-0.5,4c-0.1,0.5,0,0.8,0.5,0.9c0,0,0.1,0.2,0.1,0.2c-0.1,0.1-0.2,0.2-0.3,0.2
	c-0.4-0.1-0.7,0-0.7,0.5c-0.1,0.4-0.1,0.9-0.2,1.3c-0.1,0.3-0.2,0.8-0.5,0.9c-0.8,0.4-1,1.2-1.4,1.9c-0.2,0.3-0.4,0.7-0.7,1
	c-0.3,0.3-0.7,0.3-1-0.1c-0.4-0.5-0.9-1.1-1.3-1.7c-0.5-0.8-0.6-1.7-0.6-2.6c0-0.4,0.1-0.7,0.1-1.1c0.2-1.5,0.4-3,0.7-4.5
	c-0.5-0.1-1-0.2-1.2-0.8c0.1-0.7,0.8-0.5,1.2-0.7c0.1-0.2,0.2-0.4,0.2-0.7c0.3-2.6,0.6-5.2,1-7.9c-0.4-0.1-0.8-0.3-1.2-0.3
	c-0.7-0.1-1.4-0.2-2-0.6c-0.5-0.3-1.1-0.4-1.7-0.3c-0.2-0.2-0.4-0.4-0.6-0.6c-0.3-0.4-0.8-0.6-1.3-0.6c-0.4,0-0.9-0.1-1.3-0.1
	c-0.2-0.9-0.2-1.6,0.2-2.4c0.4-0.8,1.1-1.4,1.6-2c2-0.3,3.8,0.2,5.7,0.6c1.3,0.3,2.7,0.5,4,0.7c1.1,0.2,2.3,0.4,3.4,0.5
	c0.6,0.1,1.3,0.1,1.9,0C728.8,154.4,729.7,154.4,730.7,154.5z"/>
<path class="st0" d="M731.4,171.6c0.8-0.1,1.2-0.4,1.5-1c0.4-0.8,0.8-1.6,1.3-2.3c0.2-0.4,0.4-0.8,0.6-1.2c0.8-1.2,1.4-2.5,2.2-3.6
	c0.4-0.6,0.6-1.3,1-1.9c0.5-0.9,1.1-1.8,1.7-2.7c0.3-0.5,0.6-0.9,0.5-1.5c0-0.1,0-0.2,0-0.3c0.2-1.3,1.3-1.9,2.4-1.2
	c0.9,0.5,1.7,1.3,2.2,2.3c0.3,0.6,0.5,1.2,0.7,1.9c0.4,1.6,0.8,3.3,1.2,4.9c0.4,1.8,0.9,3.5,1.4,5.3c0,0.2,0.2,0.3,0.2,0.5
	c0.1,0,0.2,0.1,0.3,0.1c0.4-0.1,0.8-0.1,1.1,0.3c0.3,0.4,0.2,0.8,0.1,1.2c-0.1,0.2-0.2,0.4-0.3,0.6c-0.4,0.7-0.5,1.4-0.2,2.2
	c0.2,0.7,0.1,1.4,0.2,2.1c0,0.1,0,0.3-0.1,0.4c-0.5,1-1,2-1.8,2.8c-0.2,0.2-0.5,0.3-0.7,0.1c-0.3-0.2-0.7-0.5-0.9-0.8
	c-0.5-0.7-1.1-1-1.8-1.3c-0.8-1.4-1-3-1.5-4.4c-0.1-0.2-0.1-0.4-0.2-0.6c-0.3-0.8-1-1.2-1.8-0.9c-1.1,0.3-2.2,0.4-3.3,0.5
	c-1,0.1-1.8,0.6-2.2,1.7c-0.2,0.6-0.4,1.2-0.6,1.7c-0.3,0.7-0.8,1.3-1.5,1.6c-0.5,0.2-0.9,0.6-1.4,0.9c-0.5,0.4-1.1,0.1-1.2-0.5
	c-0.1-1-0.4-2.1,0.2-3.1c0.1-0.2,0.2-0.5,0.3-0.7C731.5,173.6,731.8,172.7,731.4,171.6z M737.3,171c0.3,0.4,0.6,0.5,1,0.4
	c1,0,1.9-0.1,2.9-0.2c0.2,0,0.5-0.1,0.7-0.1c0-0.2,0-0.3,0-0.4c-0.2-1.7-0.9-3.3-1.1-5.1c0-0.2-0.2-0.6-0.6-0.6
	C739.1,167.1,738.1,169,737.3,171z"/>
<path class="st0" d="M515.3,158.9c0.5,0.5,1,0.8,1.5,0.9c2.1,0.6,4.1,1.3,6.3,1.9c1.7,0.4,3.3,1.2,4.8,2.2c1.6,1.2,2.3,2.7,2.3,4.7
	c0,0.2-0.1,0.3-0.1,0.5c-0.2,0.5-0.4,1-0.5,1.5c0,0.1-0.1,0.3-0.2,0.4c-0.7,0.6-0.8,1.5-1.2,2.3c-0.3,0.6-0.7,1.1-1.2,1.6
	c-0.6,0.6-1.1,1.2-2,1.5c-0.3,0.1-0.5,0.2-0.7,0.3c-1.1,0.9-2.4,1.2-3.6,1.6c-0.6,0.2-1.2,0.2-1.8,0.3c-0.3,0-0.7,0-0.9,0.1
	c-1.2,0.6-2.6,0.2-3.9,0.6c-0.4,0.1-1-0.1-1.4-0.2c-1.9-0.4-3.8-0.9-5.2-2.5c-0.3-0.4-0.6-0.8-0.4-1.4c0.9-0.6,2-0.7,3.1-0.7
	c0-0.2,0-0.3,0.1-0.4c0.1-0.1,0.2-0.2,0.4-0.3c0.1,0,0.2,0.1,0.3,0.2c0.1,0.2,0.1,0.4,0.1,0.7c1.2,0.1,2.4,0.3,3.6,0.4
	c0.3,0,0.2,0.5,0.6,0.4c0.3-0.1,0.6-0.3,1-0.1c0.3,0.1,0.6,0.2,0.9,0.2c1.7,0,3.4-0.2,5-0.7c0.5-0.2,0.9-0.4,1.1-0.9
	c0.6-0.9,1-2,1.4-3c0.4-1.1,0.2-2.2-0.1-3.3c0-0.1,0-0.2-0.1-0.2c-0.7-0.6-1.1-1.5-2.1-1.8c-0.9-0.2-1.7-0.8-2.6-0.9
	c-0.1,0-0.3-0.1-0.4-0.1c-1.3-0.9-2.8-0.8-4.2-1.1c-0.4-0.1-0.9,0.1-1.4,0.2c-0.6-0.4-1.4-0.8-2-1.3c-0.9-0.8-1.5-1.8-1.1-3.2
	c0.3-1,0.6-1.9,1.5-2.6c0.2-0.1,0.3-0.3,0.5-0.5c0.2-0.3,0.4-0.4,0.7-0.5c0.5-0.2,0.9-0.5,1.4-0.7c0.5-0.2,1.1-0.2,1.5-0.4
	c2.2-1,4.4-1.5,6.7-2.2c0.7-0.2,1.3-0.1,1.9,0.3c0.3,0.2,0.6,0.5,1,0.7c0.5,0.1,1-0.5,1.8-0.2c-0.4,0.2-0.7,0.4-1,0.6
	c-0.3,0.2-0.6,0.4-0.8,0.5c-1,0-1.9-0.2-2.7,0c-1.4,0.2-2.9,0.5-4.2,1.1c-0.5,0.2-1,0.6-1.4,1c-0.3,0.3-0.6,0.5-1,0.6
	c-0.7,0.1-1.1,0.5-1.2,1.2C515.4,158.3,515.4,158.6,515.3,158.9z"/>
<path class="st0" d="M559.2,172.8c-0.3,0.5-0.6,0.9-0.9,1.4c-0.3-0.1-0.5-0.2-0.7-0.4c-0.5-0.3-1-0.7-1.6-0.8
	c-0.2-0.1-0.5-0.2-0.7-0.4c-0.7-0.5-0.8-0.7-0.3-1.5c0.1-0.2,0.3-0.5,0.2-0.7c-0.3-2.3-0.2-4.5-0.4-6.8c0-0.4-0.2-0.9-0.2-1.3
	c-0.1-0.9-0.5-1.8-0.3-2.9c0.1-0.6-0.2-1.2-0.3-1.9c0.2-0.4,1-0.7,0.6-1.5c-0.4,0.1-0.7,0.2-1,0.3c-0.4,0.1-0.6,0.3-0.8,0.6
	c0,0.1-0.3,0.1-0.5,0.1c-0.7,0.1-1.5,0.2-2.1,0.6c-0.4,0.3-0.9,0.3-1.4,0.4c-0.1,0-0.3-0.1-0.3-0.2c-0.1-0.1-0.1-0.3,0-0.4
	c0.2-0.5,0.6-0.9,1.2-1c0.7-0.2,1.3-0.6,1.9-0.9c0.9-0.4,1.8-0.7,2.7-1c1.4-0.5,2.8-1,4.1-1.5c0.8-0.3,1.7-0.6,2.6-0.7
	c0.2,0,0.4-0.1,0.5-0.1c1.3-0.5,2.6-0.4,3.9-0.1c1.3,0.3,2.6,0.5,3.8,1.1c1.3,0.6,2.5,1.4,3.2,2.7c0.8,1.5,1.4,3.1,1.4,4.8
	c0,0.5-0.2,1.1,0.1,1.6c0,0.1-0.2,0.3-0.2,0.4c-0.1,1.3-0.5,2.4-0.9,3.6c-0.2,0.8-0.5,1.5-0.9,2.2c-0.5,0.9-1,1.8-2,2.3
	c-0.5,0.3-0.8,0.7-1.3,1c-0.5,0.3-1,0.6-1.7,0.6c-0.6,0-1.2,0.3-1.8,0.1c-0.2-0.1-0.4,0-0.7,0c-1.5,0.1-2.9,0.1-4.4-0.1
	C560,172.7,559.6,172.8,559.2,172.8z M559.6,172c0.4,0,0.7,0,1,0c0.7-0.1,1.3-0.2,2-0.2c1.1,0,2.1-0.3,3.2-0.5
	c0.2,0,0.3-0.1,0.5-0.2c1.1-0.8,2.1-1.6,2.3-3.1c0-0.4,0.2-0.8,0.3-1.2c0.1-0.5,0.3-1,0.3-1.6c0.1-1.8,0.1-3.5-0.1-5.3
	c-0.4-2.6-2.1-4.1-4.3-5.2c-0.2-0.1-0.3-0.1-0.5-0.1c-0.6-0.1-1.3-0.1-1.8-0.3c-0.8-0.3-1.5-0.2-2.2,0c-0.8,0.1-1.5,0.5-2.2,0.7
	c-0.1,0.3-0.1,0.5-0.2,0.7c-0.3,0.9-0.2,1.7,0.4,2.5c0.4,0.5,0.7,1.2,0.8,1.8c0.2,1.3,0.4,2.5,0.4,3.8c0,1.2,0.2,2.5,0.2,3.7
	c0.1,1.4,0.3,2.7,0,4.1C559.5,171.6,559.6,171.7,559.6,172z"/>
<path class="st1" d="M833.1,227.3c-0.4-0.3-0.5-0.5-0.4-0.9c0.2-0.7,0.5-1.3,0.8-1.9c0.4-1,1.2-1.8,2-2.6c0.9-0.9,1.7-1.8,2.5-2.8
	c0.2-0.2,0.3-0.4,0.5-0.6c1.8-1.9,2.8-4.3,3.4-6.8c0.1-0.2,0-0.4,0-0.7c0-0.8,0.1-1.5,0.1-2.3c0-0.7,0-1.4-0.3-2.1
	c-0.2-0.4-0.2-0.8-0.2-1.3c0-1,0-2,0-2.9c0-0.3,0-0.6-0.1-0.9c-0.6-1.5-1.1-3.1-1.7-4.6c0-0.1-0.1-0.2-0.1-0.2
	c-0.9-1.7-1.8-3.4-2.6-5.1c-0.4-1-0.7-2-1-3c-0.1-0.4,0-0.8,0-1.2c0.9-0.5,1.7-0.2,2.5,0.3c0.8,0.6,0.8,0.6,1.5,0.8
	c0.4,1.1,1.2,2,1.9,2.9c0.5,0.7,1.2,1.3,1.7,2c0.4,0.6,0.9,1,1.7,1.2c0.2,0.4,0.4,0.8,0.6,1.2c-0.3,0.8,0.3,1.2,0.6,1.8
	c0.8,1.5,1.5,3.1,1.6,4.9c0,0.9,0.3,1.8,0.5,2.7c0.1,0.8,0.1,1.5-0.5,2.1c-0.5,0.5-0.7,1.1-0.8,1.8c0,0.2,0,0.4-0.1,0.7
	c-0.1,1.2-0.3,2.3-0.8,3.3c-0.3,0.8-0.6,1.6-1.1,2.2c-0.2,0.2-0.1,0.5-0.2,0.7c-0.1,0.5-0.3,1-0.5,1.5c-0.1,0.3-0.2,0.6-0.6,0.7
	c-0.3,0-0.3,0.2-0.4,0.5c-0.1,0.6-0.4,1-0.9,1.3c-0.1,0.1-0.2,0.1-0.2,0.2c-0.6,1-1.6,1.3-2.7,1.6c-0.8,0.2-1.5,0.6-2.2,1.2
	c-0.7,0.6-1.5,1.1-2.2,1.6c-0.2,0.2-0.4,0.3-0.5,0.6c-0.3,0.5-0.6,1.1-0.8,1.7C833.9,227.1,833.5,227.3,833.1,227.3z"/>
<path class="st0" d="M599.8,175.5c-0.3-0.5-0.5-1-0.8-1.4c-0.1-0.1-0.1-0.2-0.1-0.4c0-1.1-0.6-1.9-0.8-2.9c-0.2-0.8-0.8-1.2-1.7-1.3
	c-1,0-2-0.2-3-0.1c-1.4,0.2-3,0.3-3.7,1.8c-0.4,0.8-1.1,1.5-1.4,2.4c-0.2,0.5-0.8,1-1.4,1.1c-0.5,0.1-0.7,0.3-0.8,0.7
	c-0.2,0.9-0.8,1.6-1.4,2.4c-0.1,0.1-0.1,0.1-0.2,0.2c-0.1,0-0.3,0-0.4,0c-0.1-0.1-0.2-0.2-0.2-0.3c0-0.4,0-0.7,0.1-1.1
	c0.2-0.7,0.3-1.4,0.1-2.1c-0.1-0.7,0-1.3,0.4-1.9c1.3-2.4,2.7-4.7,4.1-7c0.2-0.3,0.4-0.5,0.6-0.7c0.4-0.6,0.8-1.3,1.2-1.9
	c0.9-1.4,1.7-2.8,2.7-4.1c0.3-0.4,0.6-0.8,0.9-1.2c0.8-1.3,2-2.2,3.2-3.1c0.2-0.2,0.5-0.2,0.7,0c0.4,0.4,0.9,0.7,1.2,1.3
	c0.6,1.5,1.3,3,1.6,4.6c0,0.2,0.1,0.4,0.1,0.5c0.6,1.2,0.9,2.5,1.2,3.8c0.5,1.7,1.1,3.3,1.5,5c0.1,0.7,0.3,1.4,0.5,2.1
	c0.3,0.9,0.5,1.8,0.3,2.7c-0.2,0.9-0.4,1.7-0.6,2.6c-0.1,0.4-0.7,0.6-1,0.2C601.9,176.6,600.9,176,599.8,175.5z M592.1,167.9
	c1.6,0.3,3-0.1,4.5-0.2c0.3,0,0.5-0.5,0.4-0.8c-0.2-0.7-0.4-1.3-0.6-2c-0.1-0.4,0-0.9-0.3-1.1c-0.4-0.4-0.1-0.9-0.4-1.2
	c0,0-0.2,0-0.3,0c-1,1.5-2,3.1-3.1,4.6c-0.1,0.1-0.1,0.2-0.2,0.4C592.1,167.5,592.1,167.7,592.1,167.9z"/>
<path class="st0" d="M798.4,161.6c0.1,0.6,0,0.9,0.1,1.3c0.4,0.8,0.3,1.7,0.4,2.6c0.1,1.4,0.1,2.8,0.5,4.2c0,0,0,0.1,0,0.1
	c-0.2,1.3,0.2,2.5,0.4,3.7c0.1,0.4,0.1,0.9,0.1,1.4c0.2,0.1,0.4,0.2,0.6,0.4c0.1,0.4-0.3,0.3-0.4,0.4c0,0.1-0.1,0.2-0.1,0.2
	c0.1,0.5,0.1,1-0.1,1.4c-0.3,0.6-0.6,1.3-0.8,1.9c-0.1,0.2-0.1,0.3-0.2,0.5c0,0.1,0,0.3,0,0.4c0,0.6-0.6,1.1-0.6,1.7
	c0.1,0.6-0.2,1.2-0.4,1.8c0,0.1-0.1,0.1-0.2,0.2c-0.5,0.1-0.9-0.2-1.2-0.6c-0.8-1.2-1.5-2.5-2.2-3.8c-0.3-0.6-0.5-1.2-0.5-1.8
	c-0.2-2.2-0.7-4.3-0.6-6.5c0-0.2,0-0.4,0-0.5c0.1-0.5-0.3-0.9-0.2-1.4c0.1-0.4,0-0.9,0-1.3c0.1-1.4-0.3-2.8-0.5-4.2
	c-0.1-0.6-0.3-1.4-1-1.8c-0.3-0.2-0.5-0.5-0.7-0.8c-1.4-0.3-2.8-0.6-4.3-0.9c-0.3-0.1-0.7-0.2-0.8-0.7c0.1-0.1,0.3-0.2,0.5-0.3
	c1.5-0.8,3.2-0.9,4.9-1c1.7-0.1,3.3,0.5,5,0.3c0,0,0.1,0,0.1,0c1,0.5,2,0.2,3,0.2c2,0,3.9,0.2,5.9,0.2c0.9,0,1.8,0.1,2.6-0.2
	c0.2-0.1,0.4-0.1,0.5-0.1c0.5,0,0.9,0.7,0.6,1.1c-0.4,0.6-0.8,1.2-1.7,1.3c-1.4,0.1-2.7,0.4-4.1,0.3c-0.9-0.1-1.8,0.3-2.6,0.1
	c0,0-0.1,0-0.1,0C799.9,161.8,799.2,161.7,798.4,161.6z"/>
<path class="st0" d="M614.8,172c1,1.3,2.4,1.9,3.8,2.6c2.2,0.3,4.3,0,6-1.5c0.2-0.2,0.4-0.5,0.4-0.8c0-1.1,0-2.2-0.6-3.2
	c-0.2-0.3-0.4-0.6-0.7-0.7c-0.2-0.1-0.4-0.2-0.6-0.3c-1.1-0.3-2-0.8-3.1-1.2c-0.6-0.3-1.3-0.4-1.9-0.6c-0.5-0.1-1-0.2-1.4-0.4
	c-0.3-0.2-0.6-0.2-1-0.2c-0.5,0.1-0.8-0.2-1.2-0.5c-0.9-0.7-1.3-1.7-1.6-2.7c-0.1-0.4-0.1-0.9-0.1-1.3c0-1.1,0-2.2,0.3-3.3
	c0.3-1.2,0.7-2.3,1.4-3.3c0.2-0.3,0.4-0.6,0.8-0.7c2-0.7,4.1-1.3,6.2-1.2c1.2,0.1,2.1,0.7,3,1.4c0.8,0.6,1.3,1.4,1.6,2.4
	c0.1,0.4,0.1,0.5-0.5,0.7c-0.9-1-1.9-1.9-3-2.7c-0.6-0.5-1.2-0.6-2-0.4c-0.7,0.2-1.4,0.4-2.2,0.6c-0.2,0.7-0.3,1.4-0.2,2.1
	c0,0.4,0,0.7-0.1,1.1c0,0.2-0.1,0.4-0.1,0.7c0.1,0.8,0.1,1.6,0.2,2.4c0.1,0.9,0.4,1.7,1.2,2.2c1.2,0.9,2.6,1.4,3.9,1.9
	c0.9,0.3,1.7,0.6,2.6,1c0.4,0.2,0.8,0.5,1.1,0.7c1.4,1.2,2.1,2.8,2.4,4.6c0,0.4,0,0.7-0.3,0.9c-0.3,0.3-0.7,0.6-0.7,1.1
	c0,0.1-0.1,0.2-0.1,0.2c-1,0.5-1.5,1.7-2.7,1.9c-0.6,0.1-1.1,0.5-1.7,0.7c-0.2,0.1-0.4,0.2-0.6,0.2c-0.6,0.1-1.1,0.1-1.7,0.3
	c-0.3,0.1-0.6,0.2-0.9,0.3c-0.3,0.1-0.6,0.3-1,0.5c-1.2-0.5-2.5-0.7-3.6-1.4c-0.1-0.1-0.3-0.1-0.5-0.1c-1.1,0.1-2-0.3-2.9-0.7
	c-1.2-0.5-2.2-1.2-2.6-2.6c-0.1-0.4-0.4-0.8-0.5-1.2c-0.2-0.8,0.1-1.3,1-1.2c0.5,0,0.7-0.4,1.2-0.4c0.7,0.2,1.3,0.6,1.8,1.2
	C614.1,171.5,614.5,171.7,614.8,172L614.8,172z"/>
<path class="st0" d="M702.8,172.4c-0.2,0.1-0.5,0.1-0.6,0.2c-0.4,0.5-0.9,0.9-1.5,1.1c-0.1,0-0.3,0.2-0.3,0.4
	c-0.1,0.8-0.7,1.2-1.1,1.8c-0.7,0.3-1.2,0.2-1.6-0.5c-1.4,0.2-2.8,0.4-4.1,0.5c-0.5,0-1-0.1-1.5-0.3c-0.5-0.2-0.9-0.3-1.4-0.4
	c-2.1-0.6-3.8-1.7-4.9-3.7c-0.8-1.5-1.2-3-1.2-4.7c0-0.9,0.1-1.7,0.3-2.6c0.1-0.5,0.2-1,0.2-1.4c0.1-1.7,0.9-3.1,1.7-4.6
	c0.2-0.5,0.6-0.9,1.2-0.9c0.1,0,0.2-0.1,0.2-0.1c0.3-0.2,0.6-0.3,1-0.1c0.4,0.3,0.6,0.6,0.6,1.1c0,0.2,0.1,0.4,0.1,0.7
	c-0.2,1.9-0.4,3.7-0.6,5.6c0,0.1,0,0.2,0,0.3c0.1,1.5,0.1,3.1,0.8,4.5c0.3,0.6,0.5,1.2,0.8,1.8c0.3,0.6,0.6,1.1,1.3,1.5
	c0.3,0.1,0.5,0.5,0.8,0.7c1.1,0.6,2.2,0.9,3.5,0.7c0.4-0.1,0.8-0.2,1.2-0.2c0.8-0.2,1.4-0.5,1.6-1.5c0.4-1.4,0.9-2.8,1.4-4.2
	c0.3-0.9,0.7-1.8,1.1-2.7c0.6-1.6,0.9-3.2,1.2-4.9c0.2-1.2,0.4-2.4,0.6-3.5c0.1-0.4,0.3-0.8,0.5-1.1c0.4-0.6,1.3-0.6,1.6,0.1
	c0.2,0.5,0.4,1.1,0.5,1.6c0.1,0.9,0.1,1.8,0.2,2.8c0.1,0.6-0.2,1.2-0.3,1.8c-0.3,2-0.9,3.9-1.5,5.8c-0.1,0.2-0.1,0.4-0.2,0.6
	c-0.4,0.6-0.6,1.3-0.8,1.9c-0.1,0.2-0.1,0.4-0.2,0.5C702.6,171.2,702.7,171.9,702.8,172.4L702.8,172.4z"/>
<path class="st0" d="M821.3,174.9c0.1-0.3-0.3-0.3-0.4-0.6c0.1-0.4,0.3-0.8,0.8-1.1c0.5,0.2,0.9,0.5,0.7,1.3c1,0.1,1.9-0.1,2.7-0.7
	c0.4-0.3,0.8-0.3,1.2-0.1c0.4,0.2,0.6,0.5,0.6,0.9c0,0.5-0.2,0.8-0.7,1c-0.1,0.1-0.2,0.1-0.4,0.2c-0.9,0.1-1.6,0.6-2.4,1
	c-0.5,0.2-1,0.3-1.5,0.5c-0.4,0.1-0.8,0.2-1.1,0.4c-0.6,0.4-1.1,0.4-1.8,0.4c-1.2,0-2.3,0.1-3.4,0.2c-0.5,0.1-1.1,0.2-1.5,0.4
	c-0.5,0.2-0.9,0.3-1.4,0.2c-1.2-0.2-2.5-0.9-3.2-2.2c-0.3-0.5-0.4-1.1-0.5-1.6c-0.1-0.9-0.1-1.9-0.2-2.8c0-0.7-0.1-1.4-0.1-2.1
	c0-0.3,0-0.5,0.1-0.8c0.2-1.5,0.5-3,0.7-4.5c0.1-0.3,0.2-0.7,0.3-1c0.3-0.6,0.6-1,1.3-1.2c1.6-0.5,3.2-1.3,4.8-1.9
	c0.5-0.2,1-0.3,1.5-0.4c0.9-0.2,1.7-0.4,2.5-0.8c0.8-0.4,1.8-0.4,2.7-0.5c0.6-0.1,1.1,0.3,1.5,0.7c0.3,0.3,0.1,1-0.3,1.1
	c-0.7,0.1-1.4,0.5-2.1,0.2c-0.3-0.1-0.6,0-0.9,0.2c-0.4,0.4-1,0.4-1.5,0.5c-1,0.2-2.1,0.5-3,1c-0.3,0.2-0.7,0.2-1,0.3
	c-0.6,0.2-1.1,0.7-1,1.4c0,1.1,0.2,2.2,0.3,3.4c0.4,0,0.8,0,1.2-0.1c0.4-0.1,0.7-0.1,1-0.2c1.1-0.4,2.3-0.3,3.4-0.2
	c0.5,0.1,0.7,0.6,0.5,1c-0.3,0.5-0.8,1-1.4,1.1c-0.7,0.1-1.4,0.3-2.1,0.3c-0.8,0-1.6,0.2-2.1,0.9c-0.3,0.3-0.4,0.6-0.1,0.9
	c0.3,0.4-0.1,0.5-0.4,0.8c0.1,0.6,0.1,1.2,0.2,1.9c0,0.6,0.4,0.9,0.9,1c1.1,0.2,2.2,0.5,3.3,0.1
	C819.8,175.1,820.6,175.2,821.3,174.9z"/>
<path class="st0" d="M844,179.8c-0.9,0.4-1.8,0.8-2.7,1.2c-0.9,0.4-2,0.6-3.1,0.5c-0.1,0-0.3,0-0.4,0c-0.1,0-0.1,0.1-0.2,0.1
	c-0.2,0.3,0.1,0.5,0.3,0.7c0.1,0.2,0.3,0.3,0.4,0.5c0.1,0.1,0.1,0.4,0,0.5c-0.1,0.1-0.4,0.2-0.5,0.2c-0.6-0.4-1.3-0.6-2-0.5
	c-0.2,0-0.3-0.1-0.5-0.2c-0.3-0.2-0.5-0.4-0.8-0.5c-0.7-0.5-0.8-0.7-0.5-1.5c0-0.1,0.1-0.1,0.1-0.2c0.1,0,0.2-0.1,0.2-0.1
	c0.5-0.1,1,0.1,1.6,0c1.2-0.4,2.5-0.6,3.5-1.5c0.6-0.5,1-1,1.3-1.6c0.1-0.4,0.3-0.8,0.5-1.2c0.2-0.5,0.2-1.1,0-1.6
	c-0.5-1-0.9-2.1-2-2.7c-0.3-0.1-0.5-0.4-0.7-0.6c-0.2-0.1-0.4-0.3-0.5-0.3c-0.7-0.1-1.1-0.5-1.6-0.9c-0.6-0.5-1.3-0.8-1.9-1.2
	c-0.6-0.4-1.3-0.8-1.6-1.3c-0.6-0.9-1.2-1.9-1-3.2c0.2-1.1,0.4-2.2,0.9-3.2c0.7-1.2,1.6-2.1,3.1-2.3c1.3-0.2,2.5-0.3,3.8-0.3
	c0.4,0,0.8,0.1,1.1,0.3c0.4,0.2,0.8,0.4,1.1,0.7c0.2,0.2,0.3,0.5,0.5,0.7c-0.5,0.3-0.9,0.2-1.2,0.1c-1.2-0.4-2.4-0.3-3.7-0.2
	c-0.2,0-0.5,0.2-0.7,0.3c0,0.2-0.1,0.3-0.1,0.4c-0.3,1.5,0.4,2.6,1.3,3.6c0.7,0.8,1.5,1.6,2.3,2.4c0.6,0.7,1.4,1.2,2.2,1.7
	c1.3,0.7,2.5,1.5,3.5,2.7c0.7,0.9,1.4,1.8,1.6,2.9c0.2,1,0,1.5-0.8,2c-0.7,0.4-1.1,0.9-1.5,1.6C844.9,178.4,844.4,179,844,179.8z"/>
<path class="st1" d="M486.7,194.6c-0.2,0.5-0.2,0.8,0,1.2c1,2,2.1,3.9,3.1,5.9c0,0.1,0.1,0.1,0.3,0.2c0.2-0.1,0.6-0.1,0.8-0.3
	c0.6-0.6,1.4-1.1,1.8-1.9c0.4-0.8,1.1-1.4,1.7-2c0.3-0.3,0.4-0.6,0.6-1c0.4-0.1,0.8,0.2,1.1-0.2c0.3-0.3,0.7-0.5,1.1-0.8
	c0.1-0.1,0.3-0.2,0.5-0.3c1.2-0.4,2.1,0.2,2.1,1.6c0,0.3-0.1,0.6-0.1,0.9c-0.3,1.7-0.2,3.3-0.5,5c-0.1,0.4,0,0.9-0.1,1.3
	c-0.1,1.3-0.7,2.5-1.4,3.5c-0.4,0.6-0.6,1.1-0.6,1.7c-0.6,0.3-0.9,0.3-1.1-0.1c-0.4-0.9-1-1.7-1.1-2.7c-0.1-0.8-0.1-1.6,0-2.4
	c0.4-1.9,0.9-3.8,1.3-5.7c-0.3-0.3-0.4-0.1-0.6,0c-0.1,0.1-0.3,0.2-0.3,0.4c-0.4,0.6-0.7,1.3-1.3,1.8c-0.2,0.2-0.3,0.6-0.4,1
	c-0.1,0.4-0.3,0.6-0.7,0.7c-0.5,0.1-0.9,0.5-1.2,1c-0.9,1.2-2.4,1.4-3.6,0.6c-1-0.6-1.7-1.5-2.3-2.5c-0.4-0.7-1.1-1.3-1.3-2.1
	c-0.1-0.2-0.5-0.1-0.6,0.1c-0.1,0.2-0.1,0.3-0.2,0.5c-0.3,1.2-0.6,2.3-0.8,3.5c-0.1,0.8-0.2,1.7-0.2,2.5c0,0.3,0,0.7-0.2,0.9
	c-0.4,0.6-0.8,1.1-1.2,1.6c-0.7,0-1.1-0.4-1.4-0.8c-0.4-0.5-0.7-1-0.7-1.7c-0.1-1,0.1-2,0.3-3c0.4-2,1-3.9,1.5-5.8
	c0.1-0.5,0.3-1,0.6-1.5c0.1-0.3,0.4-0.5,0.6-0.6c0.5-0.3,1.2-0.5,1.7-0.7c0.7-0.3,1.4-0.3,2.1-0.1
	C486,194.4,486.3,194.5,486.7,194.6z"/>
<path class="st1" d="M798.7,197.1c-0.1,0.5-0.2,0.9,0,1.2c0.5,0.8,0.7,1.7,1.4,2.4c0.4,1.3,1.3,2.3,2,3.5c0,0.1,0.1,0.2,0.1,0.2
	c0.4,1.1,0.4,1.3-0.7,1.9c-0.1,0.1-0.2,0.1-0.3,0.2c-0.4,0.4-0.9,0.4-1.3,0c-0.3-0.2-0.6-0.2-1-0.2c-1,0.2-1.7,0-2.3-0.9
	c-0.7-1.1-1.5-2.1-2.2-3.1c-0.3-0.5-0.7-0.8-1.3-0.7c-0.7,0.1-1.3,0.1-2,0c-0.8-0.1-1.6,0.2-2.4,0.4c-0.6,0.1-1,0.4-1.2,0.9
	c-0.2,0.3-0.3,0.6-0.5,0.9c-0.2,0.2-0.4,0.4-0.6,0.4c-0.9,0.2-1.7,0.3-2.6,0.4c-0.2,0-0.4,0-0.5-0.1c-0.4-0.1-0.6-0.5-0.4-0.9
	c0.3-0.5,0.5-0.9,0.9-1.3c1.5-2.2,3.1-4.4,4.6-6.5c0.4-0.6,0.8-1.3,1.2-1.9c1-1.8,2.6-2.2,4.4-2.1c1.1,0,1.9,0.7,2.4,1.6
	c0.5,0.9,1,1.8,1.5,2.7C797.8,196.7,798.1,197,798.7,197.1z M789.3,200.7c1.1,0.3,2.1-0.2,3.1-0.1c0.2,0,0.4-0.1,0.6-0.2
	c0-0.2,0-0.3,0-0.5c-0.4-1.1-0.8-2.2-1.3-3.3c-0.1-0.1-0.2-0.2-0.4-0.4c-1,1.2-1.1,2.8-2,3.9C789.3,200.3,789.3,200.5,789.3,200.7z"
	/>
<path class="st0" d="M501.5,158.2c0.4-0.4,0.7-0.4,1-0.1c0.4,0.4,0.6,0.8,0.7,1.4c0.2,0.9,0.2,1.7,0.2,2.6c0,0.9,0.3,1.7,0.4,2.6
	c0,0.2,0.1,0.5,0.1,0.6c-0.5,1.6-0.9,3.2-2,4.6c-0.3,0.3-0.5,0.6-0.5,1.1c0,0.1-0.1,0.3-0.1,0.4c-0.4,0.4-0.6,0.9-0.9,1.5
	c-0.3,0.6-0.7,1.1-1.6,1c-0.2,0-0.5,0.1-0.7,0.3c-0.4,0.3-0.8,0.4-1.3,0.3c-0.7-0.1-1.3-0.1-2-0.3c-0.6-0.2-1.2-0.2-1.8-0.4
	c-0.4-0.1-0.8-0.2-1.1-0.4c-0.9-0.7-2-1.1-2.8-2c-1-1-1.7-2.2-1.9-3.7c-0.4-2-0.1-4,0.1-6c0.1-0.8,0.5-1.6,0.6-2.4
	c0-0.4,0.4-0.8,0.8-1c0.6-0.5,1.3-0.9,2-1.3c0.9-0.5,1.5-0.1,1.8,0.8c0.2,0.6,0.3,1.1,0.2,1.7c-0.1,0.7,0,1.5-0.2,2.2
	c-0.2,0.7,0,1.5,0.1,2.2c0,0.6-0.1,1.3,0.4,1.8c0,0.1,0.1,0.2,0,0.3c-0.1,1.9,0.9,3.3,2.1,4.6c0.3,0.4,0.7,0.6,1.2,0.9
	c1,0.5,2.3,0.2,2.9-0.8c0.1-0.1,0.1-0.3,0.2-0.5c0.5-1.3,1.3-2.3,2.1-3.4c0.3-0.4,0.5-0.7,0.5-1.2c0-0.3,0.1-0.6,0.2-0.9
	c0-0.4,0.1-0.8,0-1.2c-0.3-1-0.5-2.1-0.5-3.1C501.7,159.7,501.6,159,501.5,158.2z"/>
<path class="st1" d="M639,201.3c0.7-0.2,1.1-0.5,1.4-1c0.7-1.2,1.5-2.4,2.2-3.7c0.3-0.5,0.5-0.9,0.7-1.4c0.2-0.4,0.5-0.7,1-0.8
	c0.7-0.2,1.2,0,1.4,0.7c0.3,0.9,0.7,1.7,0.8,2.7c0.2,1.2,0.5,2.3,0.7,3.5c0,0.2,0.1,0.4,0.1,0.7c0.2,1.5,0.3,3,0.5,4.5
	c0.2,1.3-0.4,2.2-1,3.2c-0.4,0.5-0.9,1-1.4,1.4c-0.5,0.4-1,0.3-1.3-0.3c0,0,0-0.1,0-0.1c-0.8-1.2-0.9-2.6-0.9-3.9c0-1.6,0-3.2,0-4.8
	c0-0.8-0.1-1.6-0.1-2.4c-0.4-0.1-0.4,0.2-0.5,0.4c-0.6,1.6-1.7,2.9-2.8,4.2c-0.1,0.2-0.5,0.3-0.7,0.2c-0.7-0.2-1.4-0.5-2.1-0.8
	c-0.2-0.1-0.3-0.4-0.5-0.6c-0.2-0.3-0.5-0.5-0.7-0.7c-0.1,0.1-0.2,0.1-0.2,0.1c0,0.3,0.1,0.6,0,0.8c0,0.2-0.2,0.5-0.3,0.7
	c-0.1,0.6-0.2,1.2-0.3,1.8c-0.1,0.9-0.2,1.9-0.4,2.8c-0.1,0.6-0.4,1.2-1.1,1.5c-0.2-0.1-0.5-0.2-0.8-0.3c-0.3-0.2-0.5-0.5-0.4-0.9
	c0.3-1.3,0.3-2.6,0.4-3.8c0.1-1,0.2-2,0.2-2.9c-0.1-1.5,0.2-3,0.3-4.5c0.1-1,0.9-2,1.7-2.1c0.2,0,0.6,0,0.7,0.2
	c0.3,0.3,0.6,0.7,0.9,1.2c0.2,0.4,0.4,0.9,0.6,1.3C637.6,199.2,638.3,200.3,639,201.3z"/>
<path class="st1" d="M467.6,200.8c0.2,0,0.4,0,0.4-0.1c1.2-1.1,2.5-2,3.3-3.5c0.1-0.2,0.3-0.2,0.4-0.4c1.5-2.2,1.4-1.9,4.1-2.6
	c0.4,0.7,0.7,1.5,0.7,2.4c0,0.6-0.1,1.2-0.2,1.9c-0.2,2.1-0.3,4.3-0.5,6.4c-0.1,0.8-0.2,1.5-0.3,2.2c-0.1,0.3-0.1,0.7-0.3,0.9
	c-0.6,0.5-0.8,1.2-0.9,2c-0.2,0-0.4,0.1-0.5,0c-1.1-0.6-2-1.2-2.2-2.6c-0.1-0.5-0.1-1,0-1.4c0.2-2.1,0.5-4.1,0.9-6.2
	c0.1-0.3,0.1-0.7,0.1-1c-0.3-0.2-0.3,0.1-0.4,0.2c-0.8,1.1-1.5,2.2-2.5,3.1c-0.2,0.2-0.4,0.6-0.6,0.8c-0.1,0.2-0.2,0.5-0.4,0.7
	c-0.3,0.4-0.5,1-1.1,1.1c-0.5,0.1-1-0.1-1.6-0.2c-0.2,0-0.3-0.2-0.4-0.3c-0.4-0.5-0.8-0.9-1.1-1.5c-0.4-0.9-0.8-1.8-1-2.7
	c-0.1-0.4,0-1-0.7-1.3c-0.2,0.9-0.7,1.7-0.8,2.6c-0.1,1.2-0.1,2.5-0.6,3.7c-0.3,1-0.4,2-0.7,3c-0.2,0.5-0.4,0.9-0.7,1.3
	c-0.2-0.1-0.4-0.2-0.5-0.3c0.4-1.6,0.8-3.1,1.1-4.6c0.3-1.4,0.5-2.9,0.7-4.3c0.1-0.6,0.2-1.1-0.2-1.7c0.6-0.5,0.9-1.2,1-2
	c0.2-0.9,0.4-1.8,0.7-2.7c0.1-0.3,0.2-0.6,0.4-0.8c0.6-0.6,1.3-0.5,1.8,0.2c0.6,1,1.1,2,1.4,3.1c0.4,1.1,0.7,2.3,1,3.5
	C467.3,200.1,467.4,200.5,467.6,200.8z"/>
<path class="st1" d="M572.5,209.1c-0.7-0.4-1.4-0.8-2.1-1.1c-0.6-0.3-0.9-0.6-0.9-1.2c0-1.2-0.1-2.3,0-3.5c0.3-2.4,0.7-4.7,1.1-7.1
	c0.1-0.8,0.5-1.5,0.7-2.3c0.2-0.5,0.5-0.7,1-0.7c0.6,0,1.1,0,1.7,0c0.2-0.1,0.3-0.3,0.6-0.4c0.3-0.1,0.6,0.1,0.7,0.4
	c0.1,0.2-0.1,0.5-0.4,0.6c-0.1,0-0.2,0-0.3,0c-0.1,0-0.2,0.1-0.3,0.1c0,0.2,0.1,0.5,0.1,0.7c0.1,0.7,0.1,1.3,0,2
	c-0.2,1.4-0.3,2.7-0.4,4.1c0,0.2,0.1,0.3,0.1,0.5c0.3,0,0.6,0.1,0.8,0c1.2-0.4,2.3-0.8,3.6-1.1c0.2,0,0.4-0.3,0.4-0.4
	c0.1-0.3,0.1-0.6,0.2-0.9c0.1-1.3,0.1-2.6,0.1-3.9c0-0.3,0.1-0.5,0.1-0.8c0.2-1.3,0.6-1.6,2-1.6c0.6,0.6,0.7,1.5,0.7,2.3
	c0.1,2.7,0.3,5.4,0.3,8.1c0,1.1-0.3,2.2-0.5,3.3c-0.1,0.4-0.2,0.9-0.4,1.3c-0.2,0.6-0.3,0.7-1.2,1c-0.1-0.2-0.3-0.4-0.4-0.6
	c-0.1-0.2-0.2-0.5-0.4-0.7c-0.6-0.5-0.7-1.2-0.6-2c0-0.7,0-1.4,0-2.1c0-0.3-0.1-0.7-0.2-1.1c-0.7,0-1.2,0.1-1.6,0.7
	c-0.3,0.6-0.7,0.7-1.3,0.6c-0.2,0-0.5,0-0.8,0c0,0.3-0.1,0.6-0.1,0.8c0,0.4-0.1,0.7-0.5,0.9c-0.6,0.3-0.6,0.9-0.4,1.4
	c0.2,0.5,0.1,0.9-0.2,1.2C573.3,208.1,573.2,208.9,572.5,209.1z"/>
<path class="st1" d="M707.3,193.5c0.9-0.3,1.7-0.4,2.5,0.1c0.2,0.1,0.5,0.3,0.6,0.4c1.6,1.7,3.2,3.3,4.6,5.2
	c0.6,0.8,1.3,1.6,2.2,2.1c0.6,0.3,1,1,1.5,1.5c0.4,0.4,0.8,0.7,1.2,1c0.6,0.5,1.1,0.5,1.6-0.3c1.1-1.8,1.6-3.8,0.7-5.9
	c-0.5-1.1-0.6-2.3-0.8-3.5c-0.1-0.4,0.5-0.9,0.9-0.7c0.4,0.2,0.8,0.4,0.9,0.9c0.2,1,0.7,1.8,1.2,2.7c0.2,0.4,0.4,0.8,0.5,1.2
	c0.2,0.7,0.3,1.4-0.1,2.1c-0.4,0.8-0.6,1.6-0.5,2.6c0,0.6-0.3,1.2-0.9,1.5c-0.4,0.2-0.8,0.5-1.1,0.8c-0.9,0.8-1.9,1.2-3,0.9
	c-1-0.2-2-0.4-2.9-0.7c-0.1,0-0.2-0.1-0.4-0.2c-1-0.7-2-1.4-2.9-2.1c-0.6-0.5-1.1-1.1-1.6-1.6c-0.2-0.2-0.5-0.3-0.8-0.5
	c-0.5,0.6-0.5,1.2-0.6,1.8c-0.1,0.9-0.2,1.8-0.3,2.8c0,0.4,0,0.9-0.4,1.2c-0.2,0.2-0.1,0.5-0.2,0.8c-0.1,0.4-0.3,0.6-0.7,0.6
	c-1,0-1.9-0.8-2-1.8c-0.1-0.4,0-0.9,0-1.3c0.1-1.7,0.4-3.3,0.7-5c0.2-0.9,0.3-1.7,0.4-2.6c0.1-0.7,0.1-1.5-0.3-2.2
	c-0.1-0.3-0.2-0.6-0.2-0.9C707.2,194,707.3,193.7,707.3,193.5z"/>
<path class="st1" d="M809.6,202.5c-0.4-0.6-0.8-1.3-1.3-1.9c-1.4-1.8-2.3-3.8-3.1-5.9c-0.2-0.5-0.3-1.1-0.5-1.7
	c-0.1-0.3,0.1-0.5,0.4-0.6c0.1,0,0.2-0.1,0.3-0.1c1.9-0.2,1.9-0.4,3.2,1.2c0.8,1,1.4,2,2,3.2c0.2,0.4,0.5,0.9,0.7,1.4
	c0.7-0.8,0.9-1.8,1.3-2.7c0.4-0.9,0.8-1.8,1.2-2.8c0.4-0.1,0.8-0.2,1.2-0.3c0.4-0.1,0.8,0.2,0.9,0.7c0.1,0.4,0.1,0.8-0.1,1.3
	c-0.4,1.1-0.9,2.1-1.1,3.3c-0.7,2.6-1.7,5-2.5,7.6c-0.1,0.3-0.2,0.6-0.3,0.9c-0.6,2.3-1.5,4.4-2.6,6.5c-0.4,0.8-1,1.5-1.6,2.1
	c-0.3,0.4-0.6,0.7-0.7,1.2c-0.1,0.6-0.6,0.7-1.1,0.4c-0.9-0.6-0.9-1.6-0.5-2.4c0.2-0.5,0.6-0.9,0.8-1.4c0.5-1.2,0.9-2.3,1.3-3.5
	C808.1,206.9,808.8,204.8,809.6,202.5z"/>
<path class="st1" d="M614.3,208.2c-0.3-0.1-0.7-0.1-0.8-0.3c-0.9-1.1-2.2-1.8-3.3-2.7c-0.7-0.6-1.4-1.2-2.1-1.8
	c-0.3-0.2-0.6-0.4-0.9-0.6c-0.2,0.2-0.4,0.4-0.5,0.6c-0.2,0.8-0.3,1.6-0.2,2.5c0.1,0.7,0.2,1.3,0.8,1.7c-0.4,0.8-0.6,0.9-1.2,0.5
	c-0.7-0.4-1.3-0.9-1.8-1.7c-0.9-1.6-1.5-3.3-1.7-5.1c-0.1-1-0.3-2-0.5-3c-0.2-1.1-0.1-2.1,0.6-3.1c0.4-0.5,0.8-0.9,1.4-1.1
	c2-0.7,4-1.1,6.1-1.5c1-0.2,1.9-0.2,2.9-0.1c1.5,0.2,2,0.6,2.1,2.2c-0.5,0.6-1,1.3-1.6,1.9c-0.1,0.1-0.3,0.3-0.4,0.3
	c-1.3,0.3-2.2,1.3-3.4,1.7c-0.3,0.1-0.7,0.3-0.8,0.7c0.1,0.2,0.2,0.5,0.4,0.7c0.6,0.7,1.3,1.3,2,2c0.2,0.2,0.4,0.3,0.7,0.3
	c0.1,0,0.2,0.2,0.2,0.2c-0.1,0.8,0.5,1.3,0.8,1.9c0.4,0.9,0.8,1.9,1.2,2.8C614.3,207.6,614.3,207.8,614.3,208.2z M605.9,198.1
	c2.8,0.5,6.2-1.3,7.2-3.9c-0.2-0.1-0.3-0.3-0.5-0.3c-0.7-0.2-1.4,0-2.1,0c-0.9,0.1-1.8,0.2-2.7,0.7c-0.3,0.2-0.7,0.3-1,0.4
	c-0.2,0.1-0.5,0.2-0.7,0.3c-0.5,0.3-0.7,0.6-0.6,1.2C605.6,197,605.8,197.5,605.9,198.1z"/>
<path class="st1" d="M511.3,198.7c0.4,0,0.6,0.1,0.7,0c0.9-0.2,1.7-0.3,2.6-0.5c0.5-0.1,0.9-0.3,1.4-0.5c0.8-0.4,1.7-0.3,2.6-0.2
	c0.1,0,0.3,0.2,0.3,0.3c0,0.2,0,0.5-0.1,0.6c-0.1,0.2-0.4,0.3-0.6,0.3c-1.1,0.4-2.3,0.8-3.5,0.7c-0.1,0-0.3,0-0.4,0.1
	c-0.5,0.4-1.1,0.4-1.6,0.7c-0.5,0.2-0.9,0.5-1.4,0.7c-0.5,0.2-0.8,0.6-0.9,1.1c-0.1,0.7-0.2,1.4-0.3,2.1c0,0.3,0,0.6,0.1,0.9
	c0.2,0.8,1.1,1.3,1.9,1.2c0.5-0.1,1-0.2,1.6-0.2c0.2,0,0.4,0,0.5-0.1c1-0.4,2-0.8,2.9-1.3c0.5-0.3,0.9-0.3,1.4,0.1
	c0,1-0.5,1.7-1.5,1.9c-0.8,0.2-1.5,0.4-2.3,0.8c-0.4,0.2-0.9,0.1-1.3,0.3c-1.2,0.9-2.6,0.5-3.9,0.4c-0.5-0.1-1.1-0.1-1.4-0.6
	c-0.1-0.1-0.3-0.2-0.4-0.3c-1.4-0.7-2-1.8-1.9-3.3c0-1.5,0.5-2.8,0.8-4.2c0.4-1.5,0.9-3,1.6-4.4c0-0.1,0.1-0.2,0.1-0.2
	c-0.2-1,0.7-1.3,1.3-1.9c0.3-0.3,0.8-0.3,1.3-0.3c1.5-0.1,3-0.2,4.5-0.3c1-0.1,1.9-0.2,2.9-0.3c0.1,0.1,0.3,0.2,0.3,0.4
	c0.2,0.5,0,0.8-0.4,0.9c-1.5,0.1-3,0.2-4.7,0.2c-0.3,0.2-0.8,0.4-1.3,0.7c-0.5,0.6-0.3,1.4-0.5,2.1
	C511.6,197.2,511.5,197.8,511.3,198.7z"/>
<path class="st1" d="M765.8,205.3c0,0.1-0.1,0.2-0.2,0.3c-0.2,0.4-0.5,0.5-0.9,0.3c-0.7-0.4-1.5-0.3-2.2-0.2c-0.4,0-0.7,0.1-1-0.1
	c-0.1-0.1-0.2-0.2-0.2-0.3c0-0.1,0.1-0.3,0.2-0.3c0.5-0.2,1.1-0.3,1.6-0.9c0-0.3,0-0.6,0.1-1c0-1.9,0-3.8,0.1-5.7
	c0-1,0.2-1.9,0.5-2.9c0.1-0.5,0.4-0.8,0.9-0.9c0.6-0.1,1.1-0.3,1.7-0.4c1.8-0.4,3.7-0.6,5.5-0.9c0.7-0.1,1.5-0.3,2.2-0.2
	c0.8,0.1,1.6,0.3,2.3,0.6c1.1,0.4,2,1.1,2.9,1.9c0.3,0.3,0.5,0.6,0.6,1c0.1,0.6,0,1-0.5,1.5c-0.4,0.4-0.7,0.8-1.1,1.2
	c-0.2,0.3-0.5,0.5-0.8,0.7c-0.7,0.5-1.2,1.2-1.8,1.7c-0.3,0.3-0.6,0.6-0.9,0.8c-0.2,0.1-0.4,0.2-0.5,0.4c-0.5,1-1.5,1.5-2.3,2.1
	c-0.4,0.3-0.9,0.5-1.4,0.5C768.9,204.5,767.4,204.8,765.8,205.3z M766.7,204.1c0.5,0,0.8,0,1.1,0c1.5-0.2,2.8-0.7,3.9-1.8
	c0.7-0.8,1.5-1.5,2.3-2.2c0.8-0.7,1.3-1.6,2-2.5c0.2-0.3,0.2-0.6,0.1-1c-0.3-1.3-1.3-1.9-2.3-2.5c-1.1-0.7-2.4-0.7-3.6-0.5
	c-1.1,0.1-2.1,0.6-3.2,0.9c-0.1,0-0.2,0.2-0.4,0.3c0.1,1.5,0.1,3.1,0.2,4.6C766.9,200.8,766.4,202.4,766.7,204.1z"/>
<path class="st1" d="M736.2,208.5c-0.7-0.8-1.5-1.3-2-2.1c-0.3-0.5-0.9-0.9-1.2-1.4c-0.4-0.6-0.8-1.3-1-2c-0.6-1.7-0.9-3.5-0.9-5.4
	c0-1.3-0.1-2.6,0.2-4c-0.2-0.1-0.4-0.2-0.5-0.2c-1.1,0-2.3,0.1-3.4,0.1c-0.3,0-0.5-0.1-0.8-0.2c-0.4-0.1-0.4-0.4-0.2-0.8
	c1-0.2,2-0.5,3.1-0.5c1.7,0,3.4-0.2,5-0.1c1.7,0.1,3.4,0,5.2,0c0.3,0,0.5,0,0.8,0c0.8,0,0.8,0,1.4,0.9c-0.3,0.7-1,1-1.5,1.7
	c-1.4-0.2-2.7-0.4-4,0.2c0,0.2-0.1,0.4-0.1,0.5c0.1,1.1,0.3,2.1,0.5,3.2c0.3,1.6,0.2,3.2,0.1,4.8c-0.1,1.5-0.5,3.1-0.3,4.6
	C736.4,208.1,736.3,208.2,736.2,208.5z M736.3,193.6c-0.1-0.1-0.1-0.2-0.1-0.2c-0.1,0-0.2,0.1-0.3,0.1c0.1,0.1,0.1,0.2,0.2,0.3
	C736.1,193.8,736.2,193.7,736.3,193.6z"/>
<path class="st1" d="M551.1,204.6c0.2-1,0.6-1.9,0.6-2.9c0.1-1.1,0-2.3,0-3.5c0-1.1-0.1-2.1,0-3.2c0-0.5,0.1-1,0.3-1.4
	c0.2-0.5,0.7-0.7,1.2-0.5c0.4,0.1,0.7,0.3,1.1,0.5c0.1,0.1,0.1,0.3,0.2,0.6c-0.4-0.1-0.7-0.1-1-0.2c0,0.6,0.5,0.4,0.8,0.6
	c0,0.1,0.1,0.2,0.1,0.2c0,1,0,1.9-0.4,2.9c-0.1,0.1-0.1,0.3-0.1,0.4c-0.1,1.1-0.1,2.1-0.2,3.2c0,0.9-0.1,1.8-0.4,2.6
	c-0.2,0.5-0.2,1.1-0.3,1.7c-0.1,0.3-0.1,0.7-0.3,1c-0.2,0.3-0.5,0.5-0.9,0.5c-0.6-0.1-1.2-0.1-1.8-0.2c-0.9-0.2-1.6-0.6-2.2-1.2
	c-0.8-1-1.6-2.1-2.4-3.2c-0.1-0.1-0.2-0.3-0.3-0.4c-0.1-0.2-0.5-0.1-0.6,0.1c-0.2,0.7-0.4,1.5-0.6,2.2c-0.1,0.3,0,0.7-0.4,0.8
	c-0.4,0.2-0.9,0.4-1.4,0.5c-0.6,0.1-1.1-0.6-0.9-1.2c0.2-1,0.4-2,0.7-3c0.3-1.2,0.5-2.3,0.7-3.5c0.1-0.6,0.3-1.2,0.5-1.8
	c0.2-0.5,0.4-0.9,0.4-1.4c0-0.5,0.3-0.8,0.8-1c0.3-0.1,0.6-0.1,0.9,0.1c0.3,0.2,0.5,0.5,0.6,0.8c0.3,0.9,0.7,1.8,0.9,2.8
	c0.1,0.5,0.3,0.9,0.7,1.2c0.2,0.1,0.3,0.4,0.4,0.7c0.3,0.7,0.5,1.4,0.7,2.1c0.5,1.2,1.1,2.2,2.1,3.1
	C550.9,204.6,551,204.6,551.1,204.6z"/>
<path class="st1" d="M693.8,203.1c-1.4,0.3-2.8,0.2-4.2,0.2c-1.5-0.1-2.6,0.6-3.1,2c-0.2,0.7-0.7,1.1-1.3,1.5
	c-0.5-0.5-0.6-1-0.2-1.6c0.3-0.5,0.7-0.9,1-1.4c0.3-0.5,0.7-1,0.9-1.5c0.6-1.1,1.3-2.2,2.3-3.1c0.2-0.1,0.3-0.3,0.4-0.5
	c0.9-1.1,1.8-2.3,2.8-3.4c0.5-0.5,0.6-1.2,0.9-1.8c0.3-0.1,0.5-0.1,0.7-0.2c0.6-0.4,1.1-0.2,1.5,0.3c0.4,0.5,0.7,1,1,1.6
	c0.6,1.2,1.3,2.4,1.7,3.8c0.1,0.3,0.3,0.6,0.5,1c0.5,1.1,0.8,2.3,1.1,3.6c0.1,0.4,0.2,0.9,0.3,1.3c-0.2,0.8-0.5,1.7-0.7,2.6
	c-0.1,0.5-0.4,0.8-0.9,1c-0.4-0.3-0.8-0.7-1.3-1c-0.1-0.1-0.2-0.3-0.4-0.4c-1.1-0.4-1.4-1.4-1.6-2.3
	C695,203.9,694.6,203.3,693.8,203.1z M694.3,201.6c-0.3-1.3-0.6-2.3-0.8-3.4c-0.1-0.4-0.1-0.8-0.2-1.2c0-0.2-0.2-0.4-0.3-0.4
	c-0.2,0-0.4,0.1-0.6,0.2c-0.2,0.1-0.3,0.4-0.3,0.6c-0.1,0.4-0.4,0.7-0.7,1c-0.9,0.8-1.4,1.8-2.2,2.7c-0.2,0.2-0.2,0.5-0.2,0.7
	c0.5,0.3,0.9,0.3,1.3,0.2c0.7-0.3,1.4-0.2,2.1-0.2C693,201.7,693.5,201.7,694.3,201.6z"/>
<path class="st1" d="M594.9,197.1c0.2,0.3,0.5,0.4,0.6,0.7c0.3,0.6,0.1,1.3-0.6,1.5c-0.7,0.3-1.5,0.4-2.3,0.6
	c-0.6,0.1-1.2,0.3-1.6,0.9c-0.4,0.4-0.6,0.9-0.6,1.4c0,0.8-0.1,1.7-0.1,2.5c0,0.8,0.5,1.3,1.3,1.3c0.5,0,1.1-0.1,1.6-0.3
	c1.4-0.6,2.8-1.2,4.1-1.9c0.3-0.2,0.6-0.3,0.7-0.7c0-0.4,0.3-0.6,0.6-0.6c0.6-0.1,1.2-0.2,1.8-0.3c0.1,0,0.3,0.1,0.4,0.1
	c0.1,0.1,0.3,0.2,0.4,0.4c0.1,0.2,0.1,0.4,0.1,0.7c-0.3,0.2-0.6,0.4-1,0.5c-1.3,0.4-2.4,1.1-3.6,1.7c-0.8,0.4-1.5,0.9-2.3,1.3
	c-0.8,0.4-1.6,0.7-2.5,0.8c-0.9,0.1-1.9-0.1-2.8,0c-0.3,0-0.7-0.3-1.1-0.5c-0.4-0.2-0.7-0.6-1-0.9c-0.4-0.4-0.6-0.8-0.7-1.4
	c-0.1-2.2,0.2-4.3,0.7-6.5c0.2-0.9,0.5-1.8,0.7-2.7c0-0.1,0.1-0.2,0.1-0.2c0.5-1.4,1.1-1.9,2.5-1.9c1.2,0,2.4,0,3.6,0
	c0.5,0,1-0.1,1.4-0.1c0.4,0,0.9,0.1,1.3,0.1c0.5,0,1-0.1,1.5-0.1c0.2,0.7-0.4,0.8-0.6,1.2c-1.5,0-2.9-0.1-4.3-0.1
	c-0.7,0-1.4,0.3-2.1,0.5c-0.1,1.2-0.2,2.4-0.3,3.6c0.9,0.2,1.7-0.1,2.4-0.2c0.2,0,0.4-0.2,0.5-0.4
	C594.3,197.8,594.6,197.5,594.9,197.1z"/>
<path class="st1" d="M453.4,199.8c0.1,0.7,0.1,0.7-0.1,1.4c-0.4,0.1-0.7,0.2-1.1,0.3c-1.2,0.3-2,1.1-3,1.7c-0.3,0.2-0.4,0.5-0.5,0.9
	c-0.1,0.6,0,1.2,0.1,1.7c0.3,1,0.9,1.4,1.9,1.2c1.1-0.2,2.2-0.4,3.2-0.9c0.2-0.1,0.5-0.2,0.8-0.2c0.7-0.1,1,0.4,0.8,1.1
	c0,0.1-0.1,0.2-0.2,0.4c-1.4,0.5-2.9,1.1-4.3,1.6c-1.9,0.6-3.8,0.2-5.4-0.9c-0.3-0.2-0.5-0.5-0.7-0.8c-0.3-0.9-0.5-1.7-0.4-2.7
	c0.3-2.2,1.2-4.3,2.1-6.3c0.3-0.8,0.7-1.6,1-2.4c0.3-0.6,0.6-1.2,0.9-1.8c0.4-0.7,0.9-1,1.8-0.9c0.1,0.3,0.3,0.5,0.4,0.8
	c0.5,0,0.9,0,1.3-0.2c1.4-0.6,2.9-0.6,4.4-0.8c0.2,0,0.4,0.1,0.6,0.2c0.1,0.1,0.2,0.2,0.1,0.3c0,0.1-0.1,0.2-0.2,0.3
	c0,0-0.1,0.1-0.1,0.1c-1.2,0-2.3,0.7-3.5,0.6c-0.3,0-0.6,0.1-0.9,0.2c-0.4,0.1-0.8,0.3-1.3,0.4c-0.7,0.1-1.1,0.6-1.3,1.2
	c-0.1,0.4-0.2,0.9-0.3,1.3c-0.2,1.1-0.4,2.2-1,3.3c0.3,0.1,0.5,0.2,0.7,0.2c1.2-0.4,2.5-0.4,3.5-1.1
	C453,199.9,453.2,199.9,453.4,199.8z"/>
<path class="st1" d="M677.8,193.6c-0.9-0.2-1.6-0.3-2.4-0.1c-1.4,0.3-2.8,0.2-4.2,0.1c-0.1,0-0.2,0-0.3-0.1
	c-0.2-0.1-0.3-0.3-0.4-0.5c0-0.1,0.2-0.3,0.3-0.4c1.1-0.6,2.3-0.9,3.6-1c1.9-0.1,3.7-0.3,5.6-0.4c0.4,0,0.8,0,1.2,0
	c0.6,0,1.2,0.1,1.5-0.6c0.4,0.3,0.7,0.5,1,0.8c1.3-0.1,2.7-0.2,4.2-0.3c0.2,0.3,0.4,0.6,0.5,0.9c-0.4,1.3-1.4,1.2-2.4,1.3
	c-1-0.5-2-0.1-3-0.1c-0.4,0-0.7,0.1-1.1,0.1c-0.3,0.8-0.5,1.6-0.4,2.5c0.1,1,0,2,0,3c0,0.5-0.1,1-0.1,1.5c0,0.9-0.1,1.7-0.3,2.5
	c-0.2,0.8-0.4,1.6-0.5,2.5c0,0.3,0,0.6,0.1,1c-0.6,0.1-1.1,0-1.5-0.5c-0.2-0.3-0.4-0.6-0.7-0.8c-0.7-0.5-0.9-1.2-0.9-2
	c0-1.6,0-3.2,0-4.8c0-0.4,0.1-0.8-0.1-1.2c-0.1-0.1-0.1-0.4,0-0.5C677.9,195.7,677.7,194.7,677.8,193.6z"/>
<path class="st1" d="M658.1,205.3c0.6-0.1,1.1-0.1,1.5-0.2c1.9-0.6,3.6-1.6,4.4-3.5c0.1-0.3,0.3-0.6,0.4-1c0.5-1.1,0.8-2.2,0.7-3.4
	c0-0.4,0-0.9,0-1.3c0-0.2,0.2-0.4,0.3-0.5c0.3-0.2,0.8-0.1,0.9,0.3c0.1,0.7,0.1,1.4,0.1,2.1c0,0.3-0.1,0.6,0,0.9
	c0.2,0.7,0,1.3-0.4,1.9c-0.4,0.6-0.7,1.2-1,1.8c-0.5,1.3-1.4,2.4-2.6,3.1c-0.7,0.4-1.3,0.9-2,1.3c-0.6,0.3-1.2,0.5-1.9,0.7
	c-0.2,0.1-0.5,0-0.6,0.2c-0.5,0.3-1,0.2-1.5-0.1c-0.3-0.2-0.7-0.3-1.1-0.4c-0.8-0.2-1.3-0.9-1.8-1.5c-0.9-1.3-1.3-2.7-1.2-4.3
	c0.1-1.1,0.2-2.2,0.3-3.3c0.1-0.7,0.3-1.4,0.9-1.9c0.2-0.2,0.3-0.3,0.5-0.4c0.9-0.5,1.5-0.3,1.9,0.7c0.1,0.3,0.2,0.6,0.2,0.9
	c0.1,1.3,0.1,2.7,0.3,4C656.6,202.8,657,204.3,658.1,205.3z"/>
<path class="st0" d="M580.6,157.1c0.7,0.5,1,1.3,1,2.2c0.1,1.5,0.1,3-0.2,4.5c-0.2,1.2-0.4,2.4-0.7,3.5c-0.2,1.2-0.5,2.4-1.7,3.2
	c-0.2,0.1-0.3,0.4-0.4,0.6c-0.2,0.4-0.3,0.9-0.5,1.4c-0.1,0.1-0.4,0.3-0.5,0.3c-0.1,0-0.2-0.2-0.3-0.4c0,0,0-0.1,0-0.1
	c0.1-1-0.4-1.8-1.1-2.5c-0.8-0.9-1-1.9-0.7-3.1c0.2-0.6,0.5-1.3,0.2-2c0-0.1,0-0.2,0-0.2c0.6-0.4,0.4-1,0.5-1.6c0.2-1,0.3-2,0.6-3
	c0.1-0.7,0.5-1.2,0.9-1.7c0.4-0.4,0.9-0.7,1.5-0.8C579.6,157.3,580.1,157.2,580.6,157.1z"/>
<path class="st1" d="M828.7,193.9c-0.7,0.1-1.2,0.3-1.8,0.3c-0.9,0.1-1.6,0.5-2.2,1.3c-0.5,0.5-0.6,1.2-1.2,1.7
	c-0.4,0.4-0.1,1.3,0.5,1.6c0.3,0.2,0.6,0.3,1,0.5c1,0.5,2,0.9,3.1,1.4c0.2-0.1,0.5-0.2,0.8-0.3c0.4,0.4-0.1,0.6-0.2,0.8
	c0,0.1,0,0.2,0.1,0.2c1,1.2,0.8,2.7,0.7,4.1c-0.1,0.7-0.5,1.3-1.3,1.6c-1,0.4-1.9,0.9-2.8,1.4c-0.2,0.1-0.5,0.2-0.8,0.2
	c-0.3,0.1-0.7,0-1.1,0.1c-0.3,0.1-0.6,0-0.9-0.2c-0.4-0.4-0.8-0.6-1.3-0.5c-0.2,0-0.4,0-0.5-0.1c-0.6-0.2-1.2-0.5-1.9-0.7
	c-0.2-0.1-0.4-0.3-0.3-0.5c0-0.3,0.2-0.6,0.5-0.6c0.3,0,0.7,0.1,1,0.2c0.7,0.2,1.4,0.5,2.1,0.8c0.7,0.3,1.4,0.2,2.1,0.2
	c0.6,0,1-0.4,1.1-1c0.1-0.8,0.3-1.6,0.1-2.4c-0.3-1.3-1-2.5-2.3-3.1c-0.8-0.4-1.7-0.7-2.6-1.1c-0.5-0.2-0.7-0.5-0.7-1
	c0-1,0.3-1.9,1.2-2.5c0.9-0.7,1.8-1.3,2.7-1.9c1.2-0.8,2.6-1.1,4-1.3C828.4,193.1,828.4,193.2,828.7,193.9z"/>
<path class="st1" d="M536.2,209.6c-0.5-0.9-0.9-1.7-1.3-2.4c-0.8-1.2-1-2.5-0.8-4c0.1-1,0.2-1.9,0.2-2.9c0.1-1,0.4-2,0.9-2.9
	c0.2-0.5,0.6-0.8,1.1-0.9c0.3-0.1,0.7-0.3,1-0.3c0.6-0.2,1.2,0.1,1.3,0.8c0.1,0.7,0.1,1.4,0.1,2.1c0,1-0.1,2-0.1,3.1
	c0,1.1-0.2,2.2-0.8,3.2c-0.2,0.4-0.4,0.9-0.5,1.4c-0.2,0.8-0.4,1.5-0.6,2.3C536.6,209.2,536.4,209.3,536.2,209.6z"/>
<path class="st0" d="M591.4,146.1c-0.6,0.6-1.2,1-2,1.1c-0.7,0.1-1.2,0.4-1.6,1c-0.5,0.7-1.3,1.2-2.2,1.4c-0.8,0.2-1.5,0.5-2.2,0.9
	c-0.7,0.4-1.5,0.6-2.2,0.9c-0.7,0.3-1.2-0.1-1.5-0.8c0-0.6,0.3-0.9,0.8-1.3c1.3-0.9,2.7-1.7,4.2-2.3c0.8-0.4,1.6-0.7,2.4-1.2
	c0.9-0.5,1.9-0.8,2.9-0.9c0.5-0.1,0.8,0.2,1.2,0.4C591.3,145.5,591.5,145.7,591.4,146.1z"/>
</svg>
