<?xml version="1.0" encoding="utf-8"?>
<!-- Generator: Adobe Illustrator 19.0.0, SVG Export Plug-In . SVG Version: 6.00 Build 0)  -->
<svg version="1.0" id="Layer_1" xmlns="http://www.w3.org/2000/svg" xmlns:xlink="http://www.w3.org/1999/xlink" x="0px" y="0px"
	 viewBox="0 341 1280 120" style="enable-background:new 0 341 1280 120;" xml:space="preserve">
<style type="text/css">
	.st0{fill:#FA0073;}
</style>
<g id="Layer_1_1_">
</g>
<g id="Layer_2">
	<g id="XMLID_42_">
		<g id="XMLID_47_">
			<path id="XMLID_92_" class="st0" d="M683.7,397.5c0-0.2-0.1-0.3-0.2-0.4c-0.4-0.2-0.5-0.7-0.6-1c-0.1-0.2-0.3-0.5-0.4-0.7
				c0-0.4-0.5-0.5-0.5-0.8c-0.1-0.1-0.1-0.2-0.2-0.3c-0.1-0.1,0-0.2-0.1-0.3l0,0c-0.2-0.7-0.7-1.3-0.9-2c-0.3-0.8-0.7-1.4-1.2-2.1
				c0-0.1-0.1-0.3-0.1-0.4c-0.2-0.7-0.7-1.3-1.1-1.9l0,0c-0.1-0.3-0.2-0.7-0.5-0.9c-0.1-0.3-0.3-0.7-0.4-1c-0.1-0.3-0.2-0.6-0.4-0.8
				l-0.1-0.1c-0.1-0.3-0.2-0.6-0.5-0.7c-0.2-0.3-0.5-0.5-0.6-0.9c-0.1-0.3-0.2-0.5-0.3-0.8c-0.5-0.9-1-1.7-1.5-2.6
				c-0.2-0.3-0.4-0.5-0.6-0.8c-0.4-0.3-0.5-0.7-0.7-1.1c-0.2-0.3-0.3-0.7-0.6-0.9c-0.1-0.1-0.1-0.2-0.1-0.3
				c-0.1-0.2-0.3-0.5-0.3-0.7c0-0.5-0.5-0.7-0.5-1.2c-0.2-0.6-0.6-1.1-0.9-1.6c-0.3-0.5-0.5-1.1-1.1-1.5c-0.2-0.3-0.5-0.5-0.6-0.8
				c0-0.4-0.2-0.6-0.5-0.8c-0.1-0.1-0.3-0.1-0.3-0.3c0.1-0.2-0.1-0.3-0.2-0.4c-0.5-0.7-1-1.4-1.4-2.2c-0.1-0.2-0.3-0.4-0.5-0.5
				c-0.5-0.4-0.5-1-0.9-1.4c-0.1,0.2,0,0.3,0,0.5c-0.3,0.1-0.3-0.1-0.4-0.2c-0.1-0.2,0-0.4,0.2-0.5l0,0c-0.1-0.2-0.2-0.5-0.3-0.7
				c-0.1-0.2-0.2-0.3-0.3-0.5c-0.2-0.2-0.2-0.6-0.5-0.8l0,0c0-0.4-0.2-0.7-0.4-1h-0.1c0-0.4-0.2-0.7-0.3-1c-0.2-0.3-0.3-0.7-0.7-0.9
				c-0.1-0.3-0.4-0.5-0.4-0.8c0-0.2-0.2-0.4-0.4-0.5h-0.1c0,0,0,0.1,0.1,0.1c-0.2,0-0.3-0.2-0.4-0.3c0-0.1-0.2-0.2,0-0.3
				c0-0.1,0-0.1,0-0.2c-0.1-0.2-0.2-0.4-0.3-0.5c-0.1-0.1-0.1-0.3-0.2-0.4c0,0,0,0-0.1-0.1v0.1c-0.1-0.1-0.4-0.1-0.3-0.4
				c-0.2-0.1-0.4-0.1-0.3-0.4l0,0v-0.1c-0.2-0.5-0.5-1.1-0.9-1.5l0,0c-0.2-0.3-0.2-0.8-0.7-0.9c0-0.2-0.2-0.4-0.4-0.5l0,0l0,0
				l-0.1,0.1c0,0.1,0.2,0.3-0.1,0.4c-0.1,0-0.3,0.1-0.4-0.1c-0.1-0.1-0.2-0.4-0.1-0.5c0.2-0.2-0.2-0.6,0.3-0.7l0,0l0,0
				c0-0.1,0-0.1,0-0.2l0,0c-0.2-0.9-0.5-1.6-1.2-2.1c-0.5,0-1.1-0.1-1.2,0.7l-0.1,0.1c-0.5,0.1-0.6,0.4-0.6,0.9
				c0.1,0.6-0.1,1.2-0.2,1.8c-0.1,0.5-0.1,1-0.1,1.5c-0.1,1-0.2,2-0.1,2.9c0.1,1.2-0.1,2.4,0.1,3.5c-0.1,0.1-0.3,0.2-0.2,0.4
				c0,0.1,0.2,0.1,0.3,0.1l0,0l0,0c0-0.1,0-0.2,0-0.3c0.2,0.4-0.1,0.7,0.3,0.9c0.3-0.3,0.5-0.2,0.8,0.1c-0.3,0-0.3,0.5-0.7,0.3
				c-0.1,0.1-0.2,0.1-0.2,0.2c0,0,0.1,0,0.1,0.1c-0.1,0.2-0.2,0.4-0.2,0.7l0,0c0,0,0,0-0.1-0.1c0,0,0,0-0.1-0.1l0,0
				c-0.1,0.1-0.2,0.2-0.2,0.4c0,0.3-0.1,0.5-0.2,0.7v0.1c0,0.3-0.1,0.5,0,0.8c0.1,0.3,0.1,0.6,0.2,1c0,0.1,0.1,0.2,0.1,0.3l0.1,0.1
				c-0.1,0.3-0.2,0.7,0.1,1c0,0-0.1,0.1-0.2,0.1c0,0.4,0.4,0.7,0.2,1.2c0,0.1,0,0.1,0.1,0.2c0,0,0,0,0,0.1c0,0.3-0.3,0.6-0.1,0.9
				l0.1,0.1V371c0.2,0.2,0.5,0.3,0.1,0.6v-0.1c0,0,0,0.1-0.1,0.1c-0.1,0.3-0.2,0.7,0.1,1c0,0,0.1,0,0,0c-0.4,0.2-0.1,0.4,0,0.6l0,0
				c-0.2,0.1-0.2,0.3,0,0.6c0,0.3-0.3,0.5-0.1,0.8c0,0.3,0.1,0.2,0.3,0.1l0,0c0,0.1,0,0.2-0.1,0.2l0,0h0.1c0,0.1,0,0.2-0.1,0.2
				c0,0-0.1,0-0.1-0.1c0,0,0,0,0,0.1c-0.1,0.2,0,0.5,0,0.7l0,0c-0.1,0-0.1,0.1-0.1,0.2v0.1c0.1,0,0.1,0,0.1-0.1
				c0.1,0.2,0.1,0.4,0.2,0.6c-0.1,0-0.2,0-0.3,0c-0.1,0.1,0.2,0.2,0.3,0.3c0,0,0,0.1-0.1,0.1c0,0-0.1,0-0.1,0.1
				c-0.1,0-0.2,0-0.2,0.2s0.1,0.2,0.2,0.2v0.1c0,0.1,0,0.1,0,0.2s-0.1,0.1-0.2,0.2c-0.1,0.1-0.1,0.1,0,0.1c0.1,0.1,0,0.2,0.1,0.2
				c0,0.1,0,0.2,0.1,0.2l0.1,0.1c0,0.1,0.1,0.3-0.1,0.3c0,0.1-0.1,0.1,0,0.2c0,0,0,0-0.1,0c-0.1,0.1-0.1,0.3-0.1,0.5l0,0
				c-0.1,0-0.2,0-0.2,0.1c0.1,0,0.2,0.1,0.2,0.1v0.1c0,0.2-0.1,0.4-0.1,0.6c0,0.2-0.2,0.4-0.1,0.6c0.2,0.3,0.2,0.6,0.1,0.9
				c-0.1,0.2,0,0.4,0.1,0.5c0.2,0.2,0.1,0.4,0,0.6c-0.1,0-0.2,0-0.2,0.2c0,0.2,0.2,0.2,0.4,0.2c0,0,0,0,0,0.1l0,0
				c0,0.1-0.3,0.1-0.2,0.3l0,0c0.3,0.3,0.3,0.3,0.2,0.9c0,0.2-0.1,0.3,0.1,0.4c0,0.1-0.2,0.1-0.2,0.2c0.1,0.3,0,0.6,0.2,0.8
				c0,0,0,0,0.1,0c0,0.1-0.1,0.2,0,0.3c0,0,0,0,0,0.1c-0.1,0.1-0.1,0.3-0.1,0.5c0,0.3,0.5,0.7-0.1,1c-0.1,0,0,0.2,0,0.3
				c0.1,0.5,0.5,1,0,1.5c-0.1,0.1,0,0.2,0,0.4c0.2,0.5,0.2,1,0.2,1.5c-0.3-0.8-0.8-1.4-1.2-2.1c-0.1-0.2-0.2-0.4-0.3-0.6
				c-0.1-0.1-0.2-0.3-0.2-0.4c-0.3-0.6-0.9-1-1.1-1.6c-0.2-0.2-0.2-0.5-0.4-0.7c-0.2-0.2-0.3-0.5-0.2-0.8v-0.1c0,0,0-0.1-0.1-0.1
				c-0.3-0.1-0.4-0.3-0.3-0.6c0-0.1,0-0.1-0.1-0.2c-0.3-0.7-0.6-1.4-1-2.1c-0.3-0.5-0.5-1.1-0.9-1.5l-0.1-0.1c0,0,0,0-0.1,0l0,0l0,0
				l0,0l0,0c0.1-0.2-0.1-0.3-0.1-0.4c-0.2-0.2-0.2-0.6-0.6-0.6l0,0c0.2-0.4-0.2-0.5-0.3-0.8c-0.4-0.4-0.6-0.8-0.8-1.3
				c-0.2-0.4-0.6-0.6-0.8-1c-0.2-0.2-0.4-0.5-0.6-0.7h-0.1c0,0,0,0-0.1,0V376c0-0.1,0-0.2-0.1-0.2c0,0,0,0,0-0.1
				c0-0.3-0.1-0.6-0.3-0.8c-0.4-0.7-0.9-1.3-1.3-1.9c-0.1-0.1-0.1-0.2-0.2-0.2l0,0c0-0.1-0.1-0.2-0.2-0.3l0,0c0-0.2-0.1-0.4-0.3-0.5
				l0,0c0-0.2-0.1-0.3-0.2-0.4c-0.1-0.2-0.3-0.3-0.3-0.5c-0.2-0.1-0.1-0.4-0.3-0.4l-0.1-0.1c-0.3-0.3-0.5-0.7-0.8-1l-0.1-0.1
				c0.4-0.3,0.1-0.4-0.1-0.5c0,0,0,0,0-0.1l-0.1-0.1c-0.2,0.1-0.4,0-0.5,0.1l0,0l0,0c0.1-0.3,0-0.6-0.2-0.8
				c-0.3-0.3-0.2-0.5-0.1-0.8c0-0.3-0.1-0.5-0.4-0.6c-0.1,0.1-0.1,0.2-0.1,0.2v-0.1v-0.1c0-0.4-0.1-0.6-0.4-0.8
				c-0.1,0-0.2-0.1-0.3-0.1h-0.1c0,0,0.1,0,0.1-0.1c0.1-0.1,0.1-0.2,0-0.3s-0.2-0.2-0.2-0.3V365c0,0,0-0.1-0.1-0.1
				c-0.1-0.2-0.2-0.5-0.4-0.7c-0.2-0.3-0.3-0.8-0.6-1.1c-0.3,0-0.2-0.2-0.2-0.4c-0.1-0.3-0.3-0.6-0.6-0.7s-0.6,0.1-1,0
				c-0.1,0-0.3,0-0.3,0.2c-0.2,0.1-0.4,0-0.6,0.1c-0.1,0.1-0.2,0.2-0.3,0.4c0,0.1,0,0.3,0.1,0.4c0,0.1,0,0.1-0.1,0.2
				c0.2,0,0.3,0.1,0.2,0.3c0,0.1-0.1,0.1-0.1,0.2c-0.1,0.2,0.1,0.4,0,0.7c0,0.1,0,0.2,0.1,0.2c0.2,0.3,0.3,0.7,0.3,1.1
				c0,0.2,0.1,0.4,0.2,0.5c0.1,0.1,0.1,0.1,0.1,0.2c0.1,0.4,0,0.8,0.1,1.1l0,0l0,0c-0.2,0.1-0.2,0.3-0.1,0.5s0.3,0.5,0.1,0.8v0.1
				c-0.1,0.1,0.2,0.2,0,0.2c-0.1,0-0.1,0.1-0.1,0.2c0,0.4-0.1,0.8-0.1,1.1c0,0.4-0.1,0.8-0.1,1.2c0.1,0.9,0,1.8,0.1,2.8
				c0,1.3,0,2.6,0.2,4c0,0.4,0.1,0.9,0,1.3c0.2,1.1,0.2,2.2,0.2,3.3c0,1.6,0,3.3,0.1,4.9c0,0.1,0,0.2-0.1,0.3
				c-0.3,0.2-0.3,0.5,0,0.7c0.3,0.3,0,0.6-0.1,0.9c0,0.2,0,0.5,0.1,0.7l0,0v0.1v0.1c-0.2,0.3,0,0.6,0,0.8c0,0.1-0.1,0.3,0.1,0.4
				c-0.1,0.5,0.1,1.1-0.1,1.6c0,0.2,0,0.5,0.1,0.7c0,0.9,0.1,1.7,0.3,2.6c0.2,1,0.2,2,0.2,3c0,0.6-0.1,1.3,0.1,1.9
				c0.1,0.1-0.1,0.3,0,0.4c0.1,1.4-0.1,2.7-0.1,4.1c-0.1,1.4-0.1,2.8-0.1,4.2c0,0.3-0.2,0.5-0.2,0.7c0,0.8-0.1,1.6-0.1,2.4v0.1
				c-0.2,0.7-0.1,1.5-0.2,2.3c0,0.1,0.1,0.1,0.1,0.2c0,0,0,0,0-0.1c0.1,0.1,0.2,0.1,0.4,0.2c-0.1,0.1-0.2,0-0.3,0l0,0
				c0,0.1-0.1,0.2-0.1,0.2c0,0.2-0.1,0.2-0.2,0.3c-0.1,0.2,0,0.3,0.1,0.5l0,0l0,0c0.2-0.1,0.3-0.3,0.5-0.1c-0.1,0.3-0.4,0.3-0.6,0.3
				c0,0,0,0,0-0.1l0,0c-0.2,0.2,0,0.3,0.1,0.5l0.1,0.1v-0.1c0.1,0,0.3,0.1,0.3,0.2c0,0.2-0.2,0.3-0.4,0.2l0,0c0,0,0,0-0.1,0
				c-0.1,0.2-0.3,0.5,0.2,0.5v0.1c0,0.8-0.2,1.7-0.1,2.5c0,0.1-0.1,0.1-0.1,0.2c0.1,0.2,0,0.5,0,0.7c0,0.1,0,0.3,0,0.4
				c0,0.6,0,1.1-0.1,1.7l0,0c-0.1,0.1,0,0.2,0.1,0.3s0,0.1-0.1,0.1c0,0.4,0,0.8,0.2,1.1c0,0.1,0,0.1,0,0.2c-0.1,0.4,0.1,0.9-0.2,1.2
				c0.2,0.5,0.4,0.9,0.4,1.5c0,0.1,0.1,0.1,0.1,0.2s0,0.2,0,0.3v0.1c0.1,0.8,0.2,1.7,0.2,2.5c0.1,1.4,0.2,2.9,0.3,4.3
				c0.1,0.8,0.4,1.5,0.3,2.2c0,0.2,0.1,0.4,0.3,0.4c0.1,0,0.1,0,0.2,0c0.2,0,0.4-0.2,0.6-0.2c0,0.8,0.2,1.5,0.2,2.2
				c0,0.2,0.1,0.4,0.3,0.5c0.3,0.1,0.5,0.4,0.6,0.7c0.1,0.1,0.1,0.3,0.3,0.3c0.3,0,0.4,0.2,0.5,0.4c0,0,0,0,0.1,0.1c0,0,0-0.1,0-0.2
				c0.5,0.5,0.6,1.2,0.7,1.9l0,0l0,0l0,0c0.1,0.1,0.2,0.2,0.2,0.3c0.1,0,0.2,0.1,0.4,0c0.1,0,0.2-0.1,0.3-0.1c0,0,0,0,0.1,0l0,0
				c0,0.1,0,0.1,0.1,0.1c0.4,0.1,0.6,0.3,0.5,0.7c-0.1,0.3,0.1,0.5,0.2,0.6c0.1,0,0.1,0,0.2,0l0,0c0.2,0.2,0.5,0.1,0.8,0.1
				c0.1,0,0.1-0.1,0.1-0.2c0-0.9,0.1-1.7,0.2-2.6c0.1-0.9-0.1-1.8,0-2.7c0-1.4-0.1-2.8,0-4.2c0-0.5,0.2-0.9,0.1-1.4
				c0-0.2,0-0.4,0-0.6c0-1.1,0.2-2.1,0.1-3.2c0-0.1-0.2-0.2-0.1-0.4c0.3-0.7,0.3-1.4,0.4-2.1c0-0.1,0-0.1,0-0.2
				c-0.1-0.7,0.1-1.4,0.1-2.2c0-0.3,0-0.7,0.1-1c0.1-0.7,0.1-1.4,0.1-2.2c0.1-0.9,0.1-1.8,0.1-2.7c0-0.4,0.1-0.9-0.1-1.3
				c0,0,0,0-0.1-0.1l0,0h0.1c0-0.2-0.1-0.4-0.1-0.6c-0.2,0-0.3-0.1-0.2-0.3c0.1-0.2,0-0.5,0.1-0.7c-0.1-0.3-0.2-0.6,0-0.8
				c-0.1-0.1-0.1-0.3-0.1-0.4c0.1-1.2,0-2.4-0.1-3.5c0-0.3-0.1-0.6-0.3-0.8c-0.1-0.1-0.2-0.2-0.2-0.3c0.1-0.1,0.2-0.3,0-0.4
				c-0.1-0.1-0.1-0.1,0-0.3c0.1-0.1,0.1-0.1,0-0.2c-0.4-0.1-0.3-0.4-0.2-0.7c0.2-0.1-0.2-0.3,0.1-0.4c0-0.1-0.1-0.1-0.1-0.2
				c-0.1-0.1-0.3-0.2-0.4-0.1c0-0.1,0.2-0.2,0.2-0.4c0-0.1,0-0.2-0.1-0.3c-0.1,0-0.1-0.1-0.1-0.2c0.4-1,0.2-2,0.2-3
				c0-0.6-0.3-1.2-0.1-1.9c0.1-0.3,0.3-0.6,0-0.9c0.2-0.2-0.1-0.4,0-0.6c0.1-0.6-0.1-1.3-0.1-1.9c0-0.3,0.1-0.7-0.1-1l0,0
				c0-0.1,0-0.3,0-0.4c0.1-0.2,0.1-0.4,0.1-0.6c0-0.1,0-0.1,0-0.2c0-0.2,0-0.3,0-0.5c0-0.6,0-1.2,0-1.9c0.3,0,0.1-0.2,0.1-0.3
				c0.1-0.5,0.1-1,0.1-1.5c0.2-0.1,0-0.4,0.2-0.5c0.3-0.2,0-0.5,0.2-0.7v-0.1c0.1-0.2,0-0.3-0.1-0.4c-0.1-0.3,0.1-0.6-0.1-0.9
				c-0.2-0.5,0.1-1-0.2-1.5c0.4-0.2-0.4-0.2-0.1-0.3c0.4-0.3,0-0.7,0-1c0-0.5,0-1-0.2-1.5c0-0.1-0.1-0.2,0-0.3c0-0.1,0-1.1,0-1.2
				v-0.1c0,0,0.1,0,0.1-0.1l0,0c0.1,0.2,0.2,0.3,0.3,0.5c0.2,0.3,0.5,0.5,0.4,0.9c0.1,0.2,0.2,0.3,0.3,0.5c0.6,0.8,1.1,1.5,1.7,2.3
				c0.3,0.5,0.7,0.9,1,1.5c0.3,0.4,0.4,0.8,0.7,1.2c0.5,0.5,0.6,1.2,1.1,1.7c0.3,0.4,0.8,0.6,1,1.1c0,0.1-0.1,0.2,0,0.2
				c0.1,0.1,0.1,0.1,0.2,0.2c0.2,0.1,0.2,0.3,0.3,0.3c0,0.1,0,0.3,0.1,0.4c0.4,0.5,0.6,1.2,1,1.7c0,0,0,0,0.1,0c0,0,0,0,0,0.1
				l0.1,0.1c0,0,0,0,0,0.1c0,0.1,0,0.2,0.1,0.3c0,0,0,0.1,0.1,0.1c0.1,0.3,0.5,0.5,0.6,0.7c0.1,0.6,0.6,1,0.8,1.5
				c0.1,0.3,0.3,0.6,0.5,0.9c0,0.1,0,0.2,0,0.3c0.1,0.2,0.2,0.3,0.3,0.4c0.2,0.3,0.4,0.6,0.7,0.8c0.1,0.1,0.2,0.3,0.2,0.5
				c0.2,0.3,0.1,0.7,0.4,0.8c0.2,0.1,0.2,0.3,0.3,0.4l0,0c-0.2,0.1-0.1,0.3-0.1,0.5c0.1,0.6,0,1.2,0,1.8c0,0.4,0,0.8,0,1.2
				c0,0.2,0,0.3,0,0.5c0.1,0.3,0.1,0.6,0,0.9c0,0.1,0,0.2,0,0.3c0.1,1,0,2,0.2,3c0,0.1,0,0.2,0,0.2c0,0.1,0,0.3,0,0.4v0.1
				c0.1,0.2,0.1,0.4,0,0.6c-0.1,0.2-0.1,0.5,0,0.7c0,0.5,0.2,0.9,0.1,1.4c0.1,0.2,0.1,0.4,0.1,0.6c0,1.1,0,2.3,0,3.4
				c0.1,0.7,0.2,1.3,0.3,2c0.1,0.2,0.1,0.4,0.1,0.6c0.2,1.2,0.2,2.3,0.4,3.5c0,0.1,0.1,0.3,0.1,0.4c0,0.2,0.1,0.3,0.2,0.5
				c0,0.1,0,0.1,0.1,0.2c0,0.1,0,0.2,0,0.3l0,0v0.1l0,0c-0.1,0-0.1,0-0.1,0.1c0,0.1,0.1,0.1,0.1,0.1s0,0,0,0.1v0.1
				c0.2,0.8,0.2,0.8,1,0.5c0.3-0.1,0.4,0,0.5,0.2c0.2,0.5,0.4,1,0.4,1.5c0,0.3,0.1,0.5,0.5,0.4c0.2,0,0.3,0.1,0.4,0.2
				c0.3,0.6,0.8,1.1,1.3,1.6c0.1,0.1,0.2,0.3,0.2,0.5c0,0.1,0.9,0.7,1,0.7c0.1,0,0.1-0.1,0.2-0.1c0.2-0.2,0.2-0.5,0.2-0.7
				c0-1.7,0.1-3.4-0.2-5.2c0-0.1,0-0.2,0-0.4c-0.1-0.1-0.1-0.2-0.1-0.4c0.1-0.5,0.1-0.9,0.1-1.4c-0.1-0.7,0-1.3,0-2
				c0-0.6,0-1.3,0-1.9c0-0.3-0.2-0.5-0.1-0.7c0.2-0.3,0.2-0.7,0.2-1c-0.1-0.5-0.1-1,0-1.6c0.1-0.8,0-1.7,0-2.6c0-0.2,0.1-0.5,0-0.6
				c-0.2-0.3,0.1-0.3,0.1-0.4c0.3,0,0.2-0.3,0.3-0.4c0.1-0.1,0.2-0.4,0.3-0.4c0.2,0.3,0.4,0.3,0.7,0c0.2-0.2,0.3-0.4,0.5-0.5
				c0,0.1,0.1,0.2,0.1,0.2c0.3-0.1,0.8,0.1,0.9-0.3c0.1,0,0.2,0,0.2-0.2c0-0.2,0-0.5,0-0.7c0.1-0.5,0.3-0.9,0.3-1.4
				c0-1.2-0.5-2.2-1-3.2c-0.2-0.4-0.7-0.6-0.7-1.2c0.3-0.2,0.4-0.4,0.2-0.7c-0.2-0.3-0.7-0.4-0.6-0.9h-0.1c-0.4,0-0.6-0.3-1-0.3
				h-0.1c-0.1-0.2-0.3-0.5-0.4-0.7c-0.2-0.6-0.1-1.2-0.3-1.7c0-0.1-0.1-0.4,0.2-0.5c-0.1-0.4,0-0.8-0.3-1.2
				c-0.1-0.2,0.1-0.2,0.1-0.3s0.1-0.3-0.2-0.4c-0.2,0-0.1-0.2-0.1-0.3c0.1-0.4,0-0.7-0.1-1c-0.1-0.1-0.3-0.4,0.1-0.5
				c0.2,0,0.1-0.1,0-0.2c-0.3-0.4,0.2-0.1,0.2-0.3s-0.7-0.2-0.3-0.6l0,0c0,0,0,0,0-0.1c-0.1,0-0.2,0-0.3,0c0.1-0.2-0.1-0.5,0-0.7
				c0.3-0.6-0.2-1.2-0.1-1.7c0-0.1,0-0.1,0-0.2c-0.2-0.1-0.1-0.3-0.2-0.5c-0.1-0.2,0.1-0.1,0.2-0.1l0,0c0,0,0,0,0.1-0.1
				c0-0.2,0-0.3,0-0.5l0,0c0.1-0.1,0-0.2,0-0.2s0,0,0-0.1c0,0-0.1,0.1,0,0.1c-0.1-0.1-0.2-0.1-0.1-0.2c0,0,0.1,0,0.2,0l0,0l0,0
				c0-0.1,0-0.1,0-0.2v-0.1c0,0.1,0,0.1,0,0.1c-0.1-0.2-0.3-0.4,0-0.6c0,0,0,0,0,0.1l0,0v-0.1V392v0.1c-0.1-0.2-0.3-0.5,0-0.7
				c-0.1-0.1,0.2-0.1,0.1-0.3c-0.2-0.5,0-1,0.1-1.5c-0.1-0.2,0-0.4,0-0.5c0.1-0.2-0.2-0.5,0.2-0.6c0.1-0.2,0-0.3,0-0.5
				c0,0,0,0,0-0.1c0,0,0,0-0.1,0.1c0-0.1-0.2-0.2-0.1-0.4c0,0,0.1,0,0.1,0.1c0,0,0,0,0-0.1c0.1-0.2,0-0.4-0.1-0.5H661
				c0-0.1-0.2-0.2,0-0.3c0,0,0,0,0.1,0.1v-0.1c0.1-0.2,0.1-0.5,0.2-0.8c0.1-0.3,0.3-0.7,0.1-1.1v-0.1c0-0.1,0.1-0.2-0.1-0.3v-0.1
				c0.2-0.5-0.1-0.9-0.2-1.3c0,0,0-0.1-0.1-0.1c0-0.1,0-0.2,0-0.3s0.1-0.1,0.2-0.1c0,0.2-0.1,0.4,0.2,0.5c0-0.2,0-0.4-0.1-0.6l0,0
				l0.1-0.1c0.1,0,0.1,0,0.2,0l0.1-0.1c-0.3,0-0.1-0.2-0.1-0.3c0.1-0.3,0-0.5-0.3-0.5v-0.1c-0.1-0.1-0.1-0.1-0.2-0.1
				c-0.1-0.1,0-0.3,0-0.5l0,0c0,0,0.1,0,0.1-0.1c0.1,0,0.2,0,0.2-0.1c0,0,0,0,0-0.1s-0.1-0.1-0.1-0.2v-0.1c0-0.2-0.2-0.4-0.1-0.6
				c0-0.1-0.1-0.2-0.1-0.2H661l0,0c0-0.1,0-0.1,0-0.2v-0.1c0-0.1,0-0.2,0-0.3v-0.1v-0.1c0,0,0,0,0-0.1c0.1-0.2,0.1-0.3,0-0.3l0,0
				c0-0.1,0-0.1,0-0.2v-0.1c0.1,0,0.3,0,0.2-0.2l0,0c0-0.1,0.1-0.2,0.1-0.3c0.1,0,0.2-0.1,0.2-0.1c-0.1-0.1-0.2-0.1-0.3-0.1l0,0
				c0-0.2-0.1-0.4-0.1-0.6c0,0,0,0,0.1,0c0.1,0,0.2,0.2,0.3,0.1c0.1-0.1-0.1-0.1-0.1-0.2c0.3-0.1,0.1-0.3,0.1-0.4s-0.1-0.1-0.2-0.1
				c-0.2,0.1,0,0.2,0,0.3c0,0.1,0,0.1,0,0.2s-0.1,0.1-0.1,0.1v-0.1c0-0.2,0-0.5,0-0.7c0-0.1-0.1-0.3-0.1-0.4
				c0.1,0.1,0.1,0.3,0.3,0.4c0.2-0.1,0-0.3,0-0.4c0.3,0,0.3-0.3,0.1-0.5c-0.1-0.1-0.2-0.2-0.3-0.3c0,0,0,0,0-0.1
				c0-0.1,0.1-0.3,0.1-0.4V374c0,0,0-0.1,0.1-0.1l0,0h0.1c0,0,0,0,0.1,0.1c0.1,0.1,0.2,0.2,0.2,0.2l0,0c0,0.1,0,0.2,0.1,0.2v0.1
				c0.3,0.5,0.6,1,0.8,1.4c0.5,0.8,1.1,1.5,1.5,2.4c0.2,0.3,0.4,0.6,0.7,1c0.3,0.6,0.6,1.2,1,1.7c1.1,1.6,2.1,3.3,3.1,5
				c0.1,0.1,0.1,0.3,0.3,0.4c-0.1,0.2,0.1,0.4,0.1,0.5c0.9,1.3,1.8,2.6,2.6,3.9c0.2,0.4,0.4,0.8,0.7,1.1c0.1,0.2,0.2,0.4,0.3,0.6
				c0.2,0.3,0.1,0.7,0.5,0.8c0.2,0.3,0.4,0.5,0.4,0.8c0,0.1,0.1,0.2,0.2,0.2c0.2,0.1,0.1,0.2,0.1,0.3c0.1,0.2,0.1,0.4,0.3,0.4
				c0.1,0.1,0.1,0.1,0.1,0.2c0,0.4,0.3,0.6,0.5,0.8c0.3,0.3,0.3,0.7,0.5,1c0.3,0.5,0.5,1,0.9,1.5c0.1,0.2,0.2,0.3,0.3,0.5
				c0.4,0.5,0.7,1,1,1.6c0.1,0.1,0.1,0.2,0.2,0.3c0,0.1,0.1,0.1,0.1,0.2c0,0.2,0.1,0.3,0.2,0.4c0.3,0.3,0.5,0.7,0.6,1.1
				c0.1,0.2-0.1,0.6,0.3,0.5c0.2-0.1,0.4-0.2,0.6,0.1c0.5-0.1,0.7,0,0.9,0.5c0,0.2,0.2,0.6,0.6,0.3c0.1,0,0.2,0,0.3,0.1
				c0.5,0.1,0.8,0.4,1.2,0.7c0.3,0.3,0.6,0.2,0.8,0c0.3-0.1,0.5-0.4,0.3-0.7c-0.2-0.4-0.1-0.6,0.4-0.7l0.1-0.1
				c0-0.5,0.2-0.9-0.2-1.4c-0.1-0.1,0-0.2,0.2-0.2c0.2-0.1,0.2-0.3,0.3-0.4c0.4-0.3,0.1-0.6,0.2-1c-0.1-0.4-0.1-0.8-0.3-1.2
				C684.4,398.3,684.1,397.9,683.7,397.5z M654,361.4c-0.1-0.2-0.1-0.4,0-0.6C654,361,654,361.1,654,361.4z M654.3,374
				c-0.1-0.2,0.1-0.2,0.2-0.3c0,0.1,0,0.1,0,0.2S654.4,374,654.3,374z M635.7,415.8c0-0.1,0.1-0.1,0.2-0.2
				C636,415.9,635.8,415.8,635.7,415.8z M636,415.9c0-0.1,0.1-0.1,0.1-0.2c0,0,0.1,0,0.1,0.1C636.2,415.9,636.2,416,636,415.9
				C636.1,416,636,416,636,415.9z M636.5,418.1C636.5,418.1,636.4,418.1,636.5,418.1L636.5,418.1L636.5,418.1z M636.3,416.2
				C636.2,416.3,636.3,416.2,636.3,416.2c0-0.2,0.1-0.2,0.2-0.2l0.1,0.1C636.5,416.3,636.4,416.2,636.3,416.2z M636.6,415.1
				c-0.1,0-0.1,0-0.2-0.1c0-0.1,0.1-0.1,0.1-0.1c0.1,0,0.1,0,0.2,0.1C636.7,415.1,636.6,415.1,636.6,415.1z M638.4,414L638.4,414
				L638.4,414L638.4,414z M637.9,413.6c0.1,0,0.3,0,0.3,0.2C638.1,413.8,638,413.7,637.9,413.6L637.9,413.6z M637.9,414.7
				L637.9,414.7C637.9,414.8,637.9,414.8,637.9,414.7L637.9,414.7z M637.4,415.4c0.2,0,0.4,0.1,0.3,0.2c-0.1,0.2-0.1,0.5-0.4,0.4
				c-0.1,0-0.2-0.1-0.1-0.2c0.1-0.2,0.1-0.2-0.2-0.4C637.2,415.4,637.3,415.4,637.4,415.4z M637.3,417.2
				C637.2,417.2,637.2,417.3,637.3,417.2c-0.2,0.1-0.2,0.1-0.2,0l0.1-0.1C637.2,417.1,637.2,417.1,637.3,417.2z M637,415.9
				c0.2,0.2,0.1,0.4,0,0.6C636.9,416.3,636.9,416.1,637,415.9z M637,418.3c0.1-0.3,0.2-0.3,0.4-0.3
				C637.2,418.1,637.2,418.2,637,418.3z M637.1,429.3c0-0.1,0.1-0.1,0.2-0.2c0.1,0.2,0.4,0.2,0.5,0.5c0,0.1-0.1,0.2-0.1,0.2
				C637.4,429.6,637.1,429.6,637.1,429.3z M637.8,432.7c-0.1,0-0.3,0-0.3-0.2c0-0.1,0.2-0.2,0.3-0.3c0.1,0,0.2,0.1,0.2,0.2
				C638.1,432.6,638,432.7,637.8,432.7z M637.9,427.5c-0.2,0-0.4,0-0.4-0.2c0-0.2,0.2-0.2,0.3-0.2c0.2,0,0.4,0.1,0.4,0.3
				C638.1,427.4,638,427.4,637.9,427.5z M638.5,415.9c-0.2,0-0.1-0.3-0.2-0.3c0.1,0,0.3,0,0.3,0.1l0,0l0,0c0,0,0,0,0,0.1
				C638.5,415.8,638.5,415.9,638.5,415.9z M639.6,418.5c0.2,0.2,0.1,0.3,0.1,0.4s-0.1,0-0.1,0C639.4,418.7,639.7,418.7,639.6,418.5z
				 M639.7,421.2c-0.1,0-0.2-0.1-0.1-0.1c0-0.1,0.1-0.3,0.2-0.3l0.1,0.1C639.9,421,639.9,421.2,639.7,421.2z M643.7,416.9
				c0.1,0,0.1,0,0.1,0.1s0,0.2-0.1,0.2c-0.1,0-0.1-0.1-0.1-0.1C643.5,416.9,643.6,416.9,643.7,416.9z M643.6,417.4
				c0.1,0.2,0.1,0.3,0,0.4h-0.2C643.3,417.6,643.6,417.6,643.6,417.4z M641.7,407.8v0.1c-0.1,0-0.2-0.1-0.2-0.2c0,0,0-0.1,0.1-0.1
				C641.7,407.7,641.7,407.8,641.7,407.8z M641.1,407.1c0.1-0.2,0.3-0.4,0.1-0.7c0-0.1,0.2-0.2,0.4-0.2c0,0.2,0,0.5,0,0.7
				c0,0.2,0,0.3-0.1,0.4c-0.1,0.1-0.3,0.1-0.4,0.1C640.9,407.3,641,407.2,641.1,407.1z M641.2,407.7c0-0.1,0.1-0.1,0.2,0
				c0.2,0.2-0.1,0.3-0.1,0.4c0.2,0.3,0.3,0,0.4,0c0.1,0.5-0.2,0.5-0.5,0.5c-0.2,0-0.3-0.1-0.1-0.4
				C640.9,408,641.1,407.9,641.2,407.7z M641.4,412.8L641.4,412.8C641.4,412.8,641.4,412.7,641.4,412.8
				C641.4,412.7,641.4,412.7,641.4,412.8c-0.3-0.4-0.2-0.8-0.2-1.2c0.2-0.5-0.1-1,0.1-1.4c0-0.1,0-0.1,0.1-0.2
				c-0.3-0.2-0.1-0.4-0.1-0.6c-0.3-0.2-0.1-0.4,0.1-0.6c0.1,0,0.2-0.1,0.2,0.1c0,0.2,0,0.4-0.1,0.6c0.2,0-0.2,0.4,0.2,0.3
				c0,0,0.1,0,0.1-0.1l0,0l0,0l0,0c-0.2-0.1-0.1-0.3,0-0.4c0,0.1,0,0.3,0,0.4l0,0l0,0l0,0l0,0c0.1,0,0.2,0,0.2,0.1c0,0-0.2,0-0.3,0
				c-0.1,0-0.2,0-0.2,0.1c0.2,0.1,0,0.3,0.1,0.5c0,0,0,0.2,0,0.3c0,0,0,0,0.1,0.1c0,0,0.1,0,0.2-0.1c0,0,0,0.2,0,0.3l0,0l0,0
				c0.1,0,0.1,0,0.2,0c0-0.1-0.2-0.2-0.1-0.3h0.1c0,0.1,0,0.2,0,0.4c0.1,0.1,0.2,0.2,0.1,0.3c-0.2,0.1-0.4,0-0.4-0.3l0,0l0,0l0,0
				l0,0l0,0c-0.1,0-0.3-0.1-0.3,0.2C641.5,411.8,641.5,412.3,641.4,412.8c0.1,0,0.2,0.1,0.3,0.1l0,0c-0.2-0.2,0-0.2,0.2-0.3l0,0l0,0
				l0,0l0,0l0,0l0,0l0,0l0,0l0,0c0.1-0.1-0.1-0.3,0-0.4c0-0.1-0.2,0-0.2-0.1s0.1-0.2,0.2-0.2c0.2,0.1-0.1,0.2,0,0.3
				c0.2,0.2,0.2,0.4-0.1,0.4l0,0l0,0l0,0l0,0c0,0.1-0.1,0.2-0.2,0.3l0,0l0,0c-0.3,0.1-0.2,0.5-0.2,0.7c-0.1,0.5,0.3,1-0.1,1.5
				c0.3,0.3,0,0.4-0.2,0.4c0-0.6,0-1.2,0-1.8C641.1,413.3,641,413,641.4,412.8z M642,414.5c0.3,0,0.3,0.2,0.2,0.4
				c0.2,0.3,0,0.4-0.3,0.5c0-0.2-0.3-0.1-0.2-0.3C641.9,414.9,641.7,414.5,642,414.5z M642.2,417.2l0.1-0.1c0.3,0.3,0.1,0.5,0,0.8
				C642.1,417.6,642.3,417.4,642.2,417.2z M642.3,417c-0.3-0.2,0-0.5-0.1-0.7h0.1c0.2,0.1,0.1,0.3,0.2,0.4
				C642.4,416.8,642.4,416.9,642.3,417z M642,416.1c-0.2,0.1-0.2-0.1-0.1-0.2c0.1-0.1,0.3-0.1,0.4-0.2c0-0.1,0.1,0.1,0.1,0.2
				C642.4,416.1,642.1,416.1,642,416.1z M642.1,417.1c-0.3,0.4-0.5,0.8-0.8,1.3c0-0.3,0-0.6,0.2-0.8c0.3-0.4,0-0.8,0-1.2h-0.1
				c0.1-0.2,0.1-0.4,0.3-0.6C641.8,416.2,641.9,416.7,642.1,417.1z M641.6,418.6c-0.1-0.3,0.2-0.2,0.3-0.5c0.1,0.4,0.1,0.5-0.2,0.6
				C641.7,418.8,641.6,418.6,641.6,418.6z M641.7,419.2c-0.1,0-0.1-0.1-0.2-0.2l0.1-0.1c0,0.1,0.1,0.1,0.1,0.2
				C641.8,419.2,641.7,419.3,641.7,419.2z M641.5,422.8c0-0.1-0.1-0.1-0.1-0.2s0-0.1,0-0.2c-0.1-0.2-0.2-0.4,0-0.5
				c0.1-0.4,0.2-0.7,0.1-1.1c0-0.2,0-0.3,0.2-0.4c0-0.2,0.1-0.2,0.3-0.3c0,0.3-0.2,0.3-0.3,0.4c-0.1,0.9,0.2,1.7-0.1,2.6
				c0.1,0.3,0.3,0.6-0.2,0.5C641.8,423.2,641.1,422.9,641.5,422.8z M641.9,440.7c0,0,0-0.1-0.1-0.1h0.1l0.1,0.1H641.9z M642,432.3
				c-0.1,0-0.2,0.1-0.3,0c0,0,0-0.1,0.1-0.2c0-0.1,0-0.3,0.2-0.2C642.2,432,642.2,432.2,642,432.3z M642.2,427.1
				c0,0.3-0.2,0.2-0.3,0.2c-0.2,0-0.2-0.1-0.2-0.2c-0.1,0-0.2,0-0.2-0.1c0-0.2,0.1-0.2,0.3-0.2c0-0.2,0.3-0.2,0.3-0.4
				c-0.1-0.1-0.2-0.1,0-0.2c0.1,0,0.1-0.1,0.2,0c0.1,0.1,0,0.2,0,0.3C642.2,426.6,642.2,426.9,642.2,427.1z M642.5,424.5
				c-0.1,0.2,0,0.5-0.4,0.6c-0.2-0.1,0.4-0.3-0.1-0.4c-0.1,0,0-0.2,0.1-0.2c0.1-0.1,0.2-0.3,0.3-0.2
				C642.6,424.3,642.5,424.4,642.5,424.5z M642.4,418.9c0.1,0.2,0,0.4-0.1,0.6C642.3,419.3,642.3,419.1,642.4,418.9
				c-0.1-0.2-0.1-0.4,0-0.5C642.6,418.6,642.5,418.8,642.4,418.9z M642.5,413.2c-0.2,0.3-0.2,0.7-0.2,1c0,0.1,0,0.2-0.2,0.2
				c-0.1,0,0-0.1,0-0.2l0,0c-0.1-0.1-0.2,0.2-0.3,0c-0.1-0.1-0.1-0.2,0.1-0.3c0.1-0.3,0.1-0.6,0.2-0.9c0-0.3-0.1-0.5,0.4-0.4
				l0.1-0.1c0-0.1,0-0.3,0.2-0.3c-0.3-0.3,0-0.6,0-0.9c0.1-0.1,0.1-0.2,0.2,0l0,0l0,0c-0.2,0.3-0.1,0.7,0,1
				c-0.1,0.3,0.2,0.6-0.1,0.8c0.1,0.2,0.1,0.5,0.1,0.8c-0.4-0.2-0.2-0.5-0.2-0.8c-0.1-0.1,0.2-0.3-0.1-0.3
				C642.4,412.9,642.5,413.1,642.5,413.2z M642.7,415c0-0.1,0.2-0.2-0.1-0.2c0-0.1,0-0.2,0-0.3c0,0,0.1-0.1,0.2-0.1s0.1,0.1,0.1,0.2
				c0.1,0.4,0,0.9,0,1.4C642.5,415.6,642.7,415.3,642.7,415z M643,417.5c0.1,0.1,0.1,0.2,0,0.2v0.1c-0.2,0-0.3,0-0.3-0.2l0,0l0,0
				c0.1,0,0.1,0,0.2,0C642.9,417.5,642.9,417.4,643,417.5z M642.8,410c0.2,0.1,0,0.1,0,0.2c-0.1,0.2,0.3,0.1,0.1,0.3
				c0,0.2,0,0.4,0,0.6c-0.1-0.1-0.2-0.2-0.3-0.3c0.1-0.1,0-0.3,0-0.4c-0.2-0.1,0.1-0.2,0-0.3C642.6,410.1,642.7,410,642.8,410z
				 M658.9,385.9c0,0.1,0,0.1-0.1,0.1c0,0,0,0-0.1,0C658.8,386,658.9,386,658.9,385.9z M657.5,378.6L657.5,378.6
				C657.5,378.6,657.4,378.6,657.5,378.6L657.5,378.6z M655.4,372.4c0,0,0.3-0.1,0.2,0.1c-0.1,0.2-0.1,0.4-0.4,0.4
				c-0.2,0-0.3-0.2-0.3-0.3C654.9,372.3,655.2,372.3,655.4,372.4z M654.9,375.4c0.2,0.2,0.3,0.4,0.2,0.7c0,0.1-0.2,0.1-0.2,0
				C654.7,375.8,654.7,375.6,654.9,375.4z M655,376.2c0.2,0.2,0.1,0.4,0.1,0.6c0.1,0.1,0.2,0.2,0,0.2H655c-0.3-0.1-0.1-0.4-0.3-0.5
				C654.8,376.4,654.8,376.2,655,376.2z M654.7,383.2L654.7,383.2L654.7,383.2L654.7,383.2L654.7,383.2z M654.8,380
				c0-0.3-0.1-0.6-0.1-0.9c0.2,0,0-0.3,0.2-0.3c0.1,0.2,0,0.3,0.1,0.5c0.1,0.4-0.1,0.8,0.2,1.1C654.9,380.4,654.8,380.3,654.8,380z
				 M655.1,377.9c0.1-0.1,0-0.4,0.3-0.3C655.4,377.9,655.6,378.2,655.1,377.9z M656.7,374.1c-0.1,0-0.2,0.1-0.3,0
				c0,0.2-0.1,0.2-0.2,0c-0.1-0.5-0.4-0.5-0.9-0.5c0.3-0.3,0.7-0.1,1-0.3c0.1,0,0.2,0,0.3,0.1l0,0c0.3,0,0,0.3,0.2,0.4
				C656.6,373.9,656.7,374,656.7,374.1z M657,378.4c-0.1,0-0.2,0-0.2-0.1c0-0.1,0.1-0.1,0.2-0.1C657,378.3,657,378.3,657,378.4z
				 M657.7,390.2L657.7,390.2C657.8,390.2,657.8,390.2,657.7,390.2L657.7,390.2z M658.1,388.9c-0.2,0.1-0.4-0.5-0.5,0
				c-0.2-0.1-0.4-0.1-0.6-0.2c0.3-0.1,0.6-0.1,0.4-0.5v-0.1l0,0l0,0l0,0c0,0,0,0,0.1-0.1c0.3-0.2,0.5,0.2,0.8,0.1c0,0.2,0,0.5,0,0.7
				C658.3,388.9,658.2,388.9,658.1,388.9z M657.8,359.7c0.1-0.1,0.2-0.1,0.3,0.1C658,359.7,657.9,359.7,657.8,359.7z M658.2,368.5
				c0,0.1,0,0.1-0.1,0.1l-0.1-0.1c0,0,0-0.1,0.1-0.1C658.2,368.5,658.2,368.5,658.2,368.5z M658,355.2c-0.2,0-0.4,0-0.3-0.2
				c0.1-0.2,0.2-0.5,0.2-0.5c0.3,0.1,0.3,0.4,0.4,0.7C658.3,355.3,658.1,355.2,658,355.2z M658.4,355.5h0.1c0,0.1,0,0.2-0.1,0.2
				c0,0-0.1,0-0.1-0.1S658.3,355.5,658.4,355.5z M658.6,369.5C658.6,369.5,658.6,369.6,658.6,369.5c-0.1,0.1-0.2,0-0.2,0
				C658.4,369.4,658.5,369.3,658.6,369.5C658.6,369.4,658.6,369.4,658.6,369.5z M658.7,395l-0.1-0.1c0-0.1,0-0.1,0.1-0.1l0.1,0.1
				C658.8,394.9,658.8,395,658.7,395z M658.5,391.2C658.5,391.2,658.5,391.1,658.5,391.2c0.3-0.1,0.3,0.2,0.4,0.3
				C658.6,391.6,658.6,391.3,658.5,391.2z M658.9,389C658.9,389,658.8,389,658.9,389C658.8,389.1,658.8,389.1,658.9,389
				C658.8,389.1,658.8,389,658.9,389C658.8,389,658.8,389,658.9,389C658.8,389,658.8,389,658.9,389C658.8,389,658.8,389,658.9,389
				C658.8,389,658.8,389,658.9,389L658.9,389l-0.1-0.1c-0.1-0.1,0-0.2,0.1-0.2c0.1,0,0.2,0.1,0.2,0.1C659.1,388.9,659,389,658.9,389
				z M659.1,391.9c-0.1-0.2,0-0.3,0.2-0.5C659.3,391.7,659.2,391.8,659.1,391.9z M659.6,390.1c-0.1,0-0.1,0-0.2-0.1
				c0-0.1,0.1-0.1,0.2-0.1c0,0,0.1,0,0.1,0.1C659.8,390.1,659.7,390.1,659.6,390.1z M659.8,392.5c0-0.1-0.1-0.1-0.1-0.1
				c0-0.1,0-0.1,0.1-0.1l0.1,0.1C659.9,392.4,659.9,392.4,659.8,392.5z M662.3,413.1L662.3,413.1L662.3,413.1L662.3,413.1z
				 M660.2,394.6C660.2,394.5,660.2,394.5,660.2,394.6c0-0.1,0-0.2,0.1-0.2C660.3,394.5,660.4,394.5,660.2,394.6
				C660.3,394.5,660.3,394.5,660.2,394.6z M660.4,386.2c-0.1,0-0.1-0.1-0.1-0.1s0-0.1,0.1-0.1l0.1,0.1
				C660.4,386.1,660.4,386.2,660.4,386.2z M660.5,371.8c-0.1,0-0.3,0-0.2-0.2c0.1-0.2-0.1-0.2-0.2-0.3c0.1-0.4,0.3,0,0.4,0
				c0.1,0.1,0.1,0.2,0.2,0.3C660.8,371.8,660.7,371.8,660.5,371.8z M662.6,369.7c-0.2-0.1-0.2-0.2-0.2-0.3
				C662.6,369.4,662.6,369.5,662.6,369.7C662.6,369.6,662.6,369.7,662.6,369.7z M663.2,362.6c0,0.1,0,0.2,0.1,0.2l0,0l0,0l0,0l0,0
				c-0.1,0-0.2,0.1-0.3,0.1C662.9,362.8,663,362.7,663.2,362.6z M663.2,364.3c-0.1-0.1-0.2-0.2,0.1-0.3c0.1,0.1,0.3,0.1,0.3,0.3
				C663.4,364.3,663.3,364.6,663.2,364.3z M664.5,366.9c0.3-0.2,0.3,0.2,0.5,0.2l0,0l0,0l0,0l0,0C664.7,367.3,664.7,367,664.5,366.9
				z M665.8,369.2L665.8,369.2C665.8,369.1,665.8,369.2,665.8,369.2L665.8,369.2z M666.8,370L666.8,370L666.8,370L666.8,370z"/>
			<path id="XMLID_48_" class="st0" d="M595.3,397.5c0.1,0.2-0.1,0.4,0.1,0.5c0.2,0.4,0.7,0.7,0.3,1.2c-0.1,0.1,0,0.3,0.1,0.4
				c0.2,0.3,0.3,0.7,0.4,1.1c0,0.1,0.1,0.3,0.2,0.3c0.1,0,0.1,0,0.1,0.1c-0.1,0.3,0.1,0.4,0.2,0.6c0.3,0.2,0.4,0.5,0.5,0.8
				c0,0.3,0.2,0.6,0.4,0.8c0,0.3,0.4,0.4,0.4,0.7c0.2,0.5,0.3,1.1,0.9,1.4c0.4,0.4,0.5,1,0.9,1.4c0.1,0.1,0.5,0.4,0.3,0.7
				c0.5,1,1.1,2,1.8,3c0.2,0.4,0.5,0.8,0.6,1.3c0.2,0.4,0.5,0.8,0.7,1.2v0.1c0.3,0.2,0.3,0.7,0.5,0.9v0.1c0.1,0.2,0.2,0.3,0.4,0.4
				c0.3,0.2-0.2,0.1-0.1,0.2c0,0.1,0.1,0.2,0.2,0.2c0.3,0,0.1,0.5,0.5,0.5c0.2-0.1,0.3,0.1,0.5,0.2c-0.1,0.1-0.3,0-0.4,0
				c-0.1,0.1,0,0.2,0.1,0.3c0.4,0.5,0.7,1.2,1,1.8c0.1,0.1,0,0.2,0.1,0.3c0.1,0,0.1,0,0.2,0.1c0.4,0.3,0.4,0.8,0.8,1
				c0.3,0.9,1,1.6,1.4,2.4c0.2,0.5,0.5,1,0.9,1.3c0.1,0,0.1,0,0.2,0.1c0,0,0,0-0.1,0.1c0,0.3,0.2,0.4,0.3,0.6
				c0.1,0.1,0.2,0.1,0.3,0.1c0.3,0,0.5,0,0.7,0.2c0.2,0.3,0.4,0.6,0.6,0.8c0.4,0.1,0.6,0.5,0.4,0.8c0,0.1,0.1,0.1,0.1,0.2
				c-0.4,0.3-0.4,0.4-0.4,0.5c0.3,0.2,0.3,0.4,0.1,0.7c-0.1,0.2-0.1,0.6,0.1,0.7c0.6,0.5,0.8,1.1,1.2,1.6c0,0.1,0,0.2,0,0.3
				c0,0.3,0.1,0.5,0.3,0.6c0,0,0.1,0,0.1,0.1v-0.1c0.1,0.1,0.1,0.1,0.2,0.2c0.1,0,0.1,0.1,0.1,0.2l0,0c0,0.1,0,0.2,0.1,0.3
				c0,0.1,0,0.2-0.1,0.2c-0.1,0-0.1-0.1-0.2-0.2c-0.1,0-0.1,0-0.1-0.1s0-0.1,0-0.2c-0.1-0.1-0.2-0.3-0.4-0.3
				c-0.2,0.1-0.2,0.3-0.2,0.5c0,0.1,0,0.2,0.1,0.2c0,0.1,0,0.2,0,0.3v0.1c0.1,0.2,0.2,0.5,0.4,0.6c0.1,0.5,0.3,1,0.6,1.5
				c0.2,0.2,0.3,0.5,0.4,0.8c0.1,0.2,0.2,0.5,0.3,0.6c0.8,0.8,1.1,1.9,1.7,2.8c0.4,0.6,0.5,1.4,1.2,1.9c0.3,0.3,0.4,0.6,0.6,0.9
				c0.4,0.6,0.7,1.2,1.2,1.7c0.2,0.1,0.2,0.4,0.4,0.5c0,0.4,0.2,0.6,0.4,0.9l0,0c-0.1,0.3,0.3,0.5,0.3,0.8c0.1,0.1,0.1,0.2,0.2,0.3
				c0.3,0.6,0.7,1.1,1.1,1.7c0.2,0,0.1,0.2,0.2,0.2l0,0c0,0.2,0.2,0.3,0.2,0.4c0.1,0.5,0.5,0.8,1,0.9l0.1,0.1
				c0.1,0.5,0.4,0.9,0.7,1.2c0.2,0.2,0.5,0.3,0.8-0.1c0.1-0.2,0.3-0.4,0.5-0.5c0.1,0.1,0.1,0.5,0.4,0.4c0.2,0,0.2-0.1,0.2-0.3
				c0.2-0.6,0-1.2,0.5-1.7c0.1,0,0.2-0.4,0.1-0.6c0.2-0.2,0-0.4,0-0.6c0.1,0.1,0.1,0.2,0.3,0.2c0.1-0.1,0.1-0.2,0.2-0.4
				c0-1.2-0.1-2.4-0.1-3.7c0-0.1,0-0.3-0.2-0.4l0,0c0-0.1,0-0.1,0-0.1l0,0c0.1-0.6,0.1-1.2,0.2-1.8c0-0.1,0.1-0.3,0-0.4
				c0,0,0-0.1,0.1-0.1c0-0.2,0-0.4,0-0.6v-0.1v-0.1l0,0c0.1-0.1,0.1-0.2,0-0.3c0-0.1,0-0.1,0-0.2c0-0.1,0-0.1,0-0.2v-0.1
				c0-0.1,0.1-0.2-0.1-0.3c-0.1-0.1-0.1-0.2,0-0.3c0.1-0.4,0-0.9,0-1.3c0-1.3,0.1-2.7,0.1-4c0.1-0.6,0.1-1.2,0-1.8l0,0
				c-0.1-1.2,0.2-2.5-0.2-3.7c0-0.3-0.1-0.6-0.1-0.9c-0.1-1.2-0.2-2.5-0.3-3.7c0-0.9-0.1-1.7,0-2.6c0.1-0.9,0.1-1.8,0.1-2.7
				c0-1.4,0-2.7-0.1-4.1c0-0.3,0-0.6-0.1-0.9c0-0.2-0.2-0.5,0-0.7c0.2-0.8,0-1.7,0.1-2.5c0.1-1.7-0.2-3.4-0.2-5.1
				c0-1.1,0-2.2-0.1-3.4c0-1.2,0-2.5-0.3-3.7c-0.2-0.7-0.2-1.7-0.1-2.8v-0.1c-0.1-0.5-0.4-1,0.1-1.4v-0.1c-0.2-0.1-0.1-0.4-0.2-0.6
				l0,0c0.1,0,0.2-0.1,0.1-0.2c0,0,0,0,0-0.1c0,0,0,0.1,0.1,0.1c0.3-0.1,0.1-0.3,0.1-0.5c0-0.1-0.2-0.3-0.1-0.4
				c0-0.1,0.1-0.1,0.1-0.2v-0.1c0.1-0.2,0.2-0.3-0.1-0.4c-0.1-1.1,0-2.2,0.1-3.3c0.1-1.1,0.1-2.2,0.1-3.4c0-0.2-0.1-0.4,0-0.6
				c-0.1-0.5,0.1-1-0.2-1.5c-0.2-0.1,0.1-0.1,0-0.2c-0.1-0.7,0.1-1.4-0.2-2.1c0-0.1-0.1-0.3-0.1-0.4c0,0.1,0,0.2,0,0.4
				c-0.3-0.4,0-0.8-0.3-1.2c-0.1-0.1,0.2,0,0.3-0.1l0,0l0,0l0,0c0-0.1,0-0.2,0-0.2l0,0l0,0c-0.3-0.1-0.3-0.2,0-0.3v0.1
				c0-0.1,0-0.1,0-0.2c-0.1-0.2,0-0.5-0.2-0.6c0.1-0.2-0.1-0.3-0.2-0.4s0.1-0.3-0.1-0.4c-0.2-0.1-0.4,0-0.3-0.3l0,0l0,0
				c-0.1,0-0.1,0-0.2,0c-0.1,0-0.3,0-0.2-0.1c0-0.2,0.2-0.1,0.3,0h0.1l0,0c0,0,0.1,0,0.1-0.1c0.1-0.4,0-0.7-0.1-1.1
				c-0.2-0.1-0.2-0.3-0.3-0.5c-0.2-0.4-0.3-0.9-0.8-1.1c0-0.2-0.1-0.3-0.2-0.4c-0.1-0.1-0.4-0.1-0.1-0.3c0-0.5-0.1-1-0.2-1.6
				c-0.1-0.3-0.1-0.6-0.4-0.7c-0.1-0.1-0.2-0.1-0.3-0.3c-0.3-0.5-0.7-0.8-1.2-1.2h-0.1c0,0,0.1,0,0.1,0.1c-0.1,0.1-0.4-0.1-0.4,0.2
				c-0.1-0.1-0.1-0.2-0.1-0.3c0,0,0,0,0.1,0l0,0c0,0,0-0.1-0.1-0.1c-0.4-0.3-1-0.4-1-1.1c-0.1-0.1,0-0.2-0.1-0.3l0,0
				c-0.1-0.1-0.1-0.2-0.3-0.1c-0.3,0.4-0.2,0.9-0.4,1.3c0,0.7-0.2,1.4,0,2.1c0.1,0.3-0.3,0.6,0,0.8h0.1c0.1,0.2-0.1,0.3-0.2,0.3
				c0,0.9,0,1.8,0.3,2.6v0.1c-0.2,1.7-0.1,3.5-0.3,5.2c-0.1,1.1,0,2.2,0.1,3.3c0,0.2,0,0.4,0.1,0.5c0,0.1,0,0.1,0,0.2
				c0.1,0.5,0,1.1,0,1.7h0.1c0,0,0,0,0,0.1c-0.2,0.3-0.1,0.6-0.1,0.9c-0.1,1.4,0.1,2.9-0.1,4.3c0,0.3-0.1,0.6,0.3,0.7
				c-0.2,0.3-0.3,0.6-0.3,0.9c-0.1,0.8,0.1,1.5,0,2.3c0,0.1,0,0.1,0.1,0.1v0.1c0,0.1,0.1,0.2,0.1,0.2c0,0.1,0,0.2,0.1,0.3l0,0
				c0,0.1,0.1,0.3,0,0.3c-0.4,0.4-0.2,0.9-0.2,1.4c0,0.2,0,0.5,0.3,0.5c-0.1,0.3,0,0.3,0.1,0.3c0,0.2-0.2,0.3,0,0.5l0,0
				c0,0.2,0.1,0,0.2,0c0,0,0,0,0,0.1v0.1c-0.1,0-0.2,0-0.2,0.1c0.1,0,0.1,0,0.2,0c0,0,0,0,0,0.1c-0.1,0.3-0.2,0.6-0.1,1v0.1
				c-0.1,0.1,0,0.2,0,0.4c0,0.1-0.1,0.1-0.1,0.2c-0.5,1.5-0.4,3.1-0.4,4.6c0,0.1,0.1,0.2,0.1,0.2c0.3,0.2-0.2,0.6,0.2,0.9
				c-0.2,0.5-0.1,1.1-0.2,1.6c0,0.1,0.1,0.1,0.1,0.1c0.1,0.1,0.1,0.2,0,0.3c-0.5,0-0.5,0.1-0.4,0.1c0,0,0.2,0,0.3,0
				c0.1,0.2-0.4,0.5,0.1,0.6v0.1c-0.2,0.4,0,0.8,0,1.2c0.1,0.1,0.2,0.3,0.2,0.4l0,0c0,0.1,0.2,0.3,0.1,0.4c-0.4,0.2-0.2,0.4-0.2,0.7
				c0.1,0,0.2-0.1,0.1-0.2c0-0.1,0-0.1,0.1-0.1c0.1,0,0.2,0,0.2,0.1c-0.1,0.2,0,0.5-0.4,0.5c0,0.4-0.1,0.9-0.1,1.3
				c0,0.3-0.2,0.7,0,1l0.1-0.1l0,0l0,0c-0.1-0.1-0.2-0.1,0-0.2c0-0.1,0-0.2,0-0.3s0-0.2,0.1-0.1c0,0,0,0.1,0.1,0.2
				c0,0.1,0,0.2,0,0.3l0,0c0,0.1-0.1,0.1-0.1,0.2c0,0,0.1,0,0.1,0.1c0,0.1,0,0.2,0,0.3c0.1,0,0.2,0,0.3,0.1c0.1,0.1,0.2,0.1,0.1,0.3
				c-0.1,0.2-0.1,0.4-0.4,0.4c0,0.2-0.4,0.2-0.3,0.5c0,0.1,0,0.1,0.1,0.2l0,0l0,0c0.1-0.1,0.1-0.1,0.2-0.2c0.2,0.2-0.1,0.3,0,0.4
				c-0.1,0-0.1,0-0.2-0.1c0,0.2,0,0.5,0.1,0.7c0.1,0,0.1-0.3,0.3-0.2c0.1,0.4-0.3,0.6-0.3,0.9c0.2,0,0.1-0.2,0.3-0.2
				c0,0,0.1,0,0.1,0.1c0,0.1-0.1,0.3-0.1,0.4c-0.1,0.3-0.2,0.7-0.2,1c0,0.1,0.1,0.1,0.1,0.2v-0.1c0.2,0.1,0.3,0.3,0,0.4v-0.1
				c0,0,0,0.1-0.1,0.1v0.1c0.1,0.3,0,0.5-0.1,0.7s-0.1,0.3-0.1,0.5s0,0.4,0,0.6c0-0.2,0.1-0.4,0.1-0.7c0.3,0.3,0,0.5,0,0.8
				c0,0.3,0,0.6-0.1,0.9l0,0l0,0v-0.1c0,0,0,0,0,0.1s-0.1,0.1-0.1,0.1c-0.1,0.7-0.2,1.4-0.1,2.1h0.1l0,0c0,0,0,0-0.1,0
				c-0.2,0.4-0.3,0.8,0,1.2l0,0c-0.1,0.3-0.1,0.6,0,0.9c-0.1,0.1,0-0.1-0.1-0.1c-0.1-0.3-0.2-0.6-0.5-0.7l-0.1-0.1
				c-0.1-0.1-0.2-0.2-0.1-0.4c-0.1-0.1-0.2-0.2-0.3-0.2v-0.1c-0.1-0.4-0.3-0.8-0.6-1.1H617c0-0.1-0.1-0.2-0.2-0.3c0,0,0,0,0-0.1
				v-0.1l-0.1-0.1c-0.1-0.1-0.2-0.2-0.3-0.3c0,0,0-0.1-0.1-0.1c0,0,0-0.1-0.1-0.1l-0.1-0.1l-0.1-0.1c0-0.2-0.1-0.4-0.3-0.4
				c-0.1,0-0.2-0.1-0.3-0.1v-0.1c-0.2-0.2-0.1-0.5-0.4-0.6c-0.1-0.3-0.4-0.5-0.6-0.7c0.1-0.2-0.1-0.2-0.2-0.3
				c0.1-0.4-0.4-0.5-0.4-0.8l-0.1-0.1c0,0,0,0,0-0.1s0-0.2-0.1-0.3c-0.3-0.5-0.6-1-0.9-1.4c-0.3-0.5-0.5-1.2-1-1.6
				c-0.1-0.1-0.1-0.2-0.2-0.3c-0.1-0.3-0.2-0.7-0.5-0.8c0-0.2-0.2-0.3-0.4-0.4c-0.1-0.2,0-0.4-0.1-0.5c-0.4-0.7-0.8-1.4-1.2-2.1
				c-0.1-0.2-0.3-0.4-0.4-0.5c0-0.2,0.2-0.4,0-0.5c-0.4-0.2-0.5-0.7-0.8-1c0,0,0,0-0.1,0l0,0c-0.3,0.1-0.2-0.2-0.2-0.3
				c-0.1-0.1,0.1,0,0.1-0.1v-0.1l-0.1-0.1c-0.3-0.4-0.6-0.9-0.8-1.3c-0.2-0.3-0.4-0.6-0.4-1c0.1-0.2-0.1-0.3-0.2-0.5
				c-0.4,0-0.3-0.4-0.5-0.6c-0.3-0.5-0.7-1-0.8-1.5c-0.1-0.9-0.7-1.5-1.1-2.2c-0.1-0.1-0.2-0.2-0.2-0.3c-0.1-0.3-0.2-0.5-0.4-0.6
				c-0.3-0.2-0.3-0.4-0.4-0.7c0-0.2-0.1-0.3-0.2-0.4c-0.3-0.3-0.6-0.6-0.9-1c-0.3-0.1-0.5-0.3-0.6-0.6c-0.1-0.2-0.3-0.4-0.6-0.5
				c-0.2-0.2-0.5-0.4-0.7-0.6c0,0.2,0,0.3-0.1,0.4c-0.1,0.3,0,0.5,0.1,0.8l0,0c-0.1-0.1-0.2-0.1-0.3,0l0,0c0-0.1-0.1-0.1-0.2-0.1
				l0,0c-0.2-0.3-0.5-0.4-0.8-0.4c0,0-0.1,0-0.1-0.1l-0.1-0.1c-0.3,0.1-0.5-0.1-0.7-0.2c-0.2-0.1-0.4-0.1-0.6,0l0,0
				c-0.3,0-0.4,0.2-0.4,0.4c0,0.1,0,0.1,0,0.2c-0.2,0.1-0.1,0.5-0.3,0.6c-0.3,0.1-0.2-0.4-0.5-0.4c-0.2,0,0-0.4-0.3-0.4
				c0,0.3-0.2,0.6-0.3,0.8C594.8,396.7,595,397.1,595.3,397.5L595.3,397.5z M624.7,443.1c0.1,0,0.3,0,0.3,0.1c0,0.2-0.1,0.1-0.2,0.1
				c-0.4,0.3-0.7,0.2-1.1-0.5C624.1,443.3,624.4,443.1,624.7,443.1z M623.5,423.4L623.5,423.4L623.5,423.4L623.5,423.4z
				 M622.1,424.5l-0.1-0.1c0-0.1,0-0.1,0.1-0.1c0.1,0,0.1,0,0.2,0.1C622.3,424.5,622.2,424.5,622.1,424.5z M621.6,423.2
				c0.3-0.1,0.3-0.1,0.9,0.3C622.1,423.7,621.9,423.2,621.6,423.2z M622.8,423c-0.2,0.2-0.4,0-0.6,0.2
				C622.3,422.6,622.3,422.6,622.8,423z M622.9,408.5c-0.1,0.1-0.4,0.2-0.4,0c-0.1-0.3,0.3-0.3,0.4-0.6
				C623,408.1,623.2,408.3,622.9,408.5z M622.6,407.3c0-0.1,0.1-0.1,0.1-0.1c0.1,0,0.2,0.2,0.2,0.3s-0.1,0.1-0.1,0.1
				C622.6,407.5,622.5,407.5,622.6,407.3z M624.4,380.8c-0.3,0.2-0.5,0.1-0.7,0C623.9,380.6,624.1,380.7,624.4,380.8z M624.3,374.3
				c-0.1,0.4-0.2,0.5-0.6,0.5C623.9,374.6,624.1,374.5,624.3,374.3z M619,375.3l-0.1-0.1c0-0.1,0-0.1,0.1-0.1
				C619,375.1,619.1,375.1,619,375.3C619.1,375.2,619,375.3,619,375.3z M618.9,378.5c0-0.1,0-0.2,0.1-0.2c0.1,0,0.1,0.1,0.1,0.1
				c0,0.1,0,0.2-0.1,0.2C618.9,378.7,618.9,378.6,618.9,378.5z M618.9,380.7c-0.1-0.2,0.1-0.2,0.1-0.4
				C619.1,380.5,619.2,380.7,618.9,380.7z M619.1,395.6L619.1,395.6L619.1,395.6L619.1,395.6z M620.5,368.8h-0.1H620.5L620.5,368.8z
				 M619.8,383.2C619.8,383.2,619.9,383.1,619.8,383.2C619.9,383.1,619.9,383.1,619.8,383.2C619.9,383.2,619.8,383.2,619.8,383.2z
				 M620.8,368.9L620.8,368.9L620.8,368.9L620.8,368.9L620.8,368.9z M619.2,410.8c-0.3-0.1-0.1-0.3-0.1-0.4
				C619.3,410.5,619.2,410.6,619.2,410.8z M619.6,419.9c0-0.1-0.1-0.1-0.1-0.1c0-0.1,0-0.1,0.1-0.1l0.1,0.1
				C619.7,419.8,619.7,419.8,619.6,419.9z M620.1,418.1c0,0,0.1,0.1,0.1,0.2c0,0.1-0.1,0.3-0.3,0.3c-0.1,0-0.2,0-0.2-0.1
				C619.9,418.3,620,418.1,620.1,418.1z M619.8,413.4c0.1,0,0.2,0,0.2,0.1c0,0.2-0.2,0.3-0.3,0.3c-0.1,0-0.3-0.1-0.2-0.2
				C619.5,413.4,619.7,413.4,619.8,413.4z M619,425.7c-0.1,0.2,0.3,0.4,0.1,0.6h-0.2l0,0l0,0l0,0C618.8,426.1,618.8,425.9,619,425.7
				z M618.9,417.7c0-0.2,0-0.5,0.1-0.7C619.1,417.2,619,417.4,618.9,417.7z M618.3,424.3c0.1,0.1,0.1,0.2,0.2,0.2
				C618.2,424.6,618.2,424.5,618.3,424.3z M614.2,419.1c-0.1,0.2-0.2,0.1-0.2,0.1c-0.1,0-0.1-0.1-0.2-0.1
				C614,418.9,614.1,418.9,614.2,419.1z M613.1,419.1c0.2,0,0.3,0.1,0.3,0.3C613.3,419.3,613,419.5,613.1,419.1z M613,417.3
				L613,417.3L613,417.3L613,417.3c-0.1,0.1-0.2,0.2-0.5,0.3C612.6,417.2,612.8,417.2,613,417.3z M612.1,423.7c-0.2,0-0.3,0-0.3-0.2
				c0.1-0.2-0.1-0.2-0.2-0.3C612.2,423.1,612,423.5,612.1,423.7z M611.9,416.2L611.9,416.2C611.9,416.3,611.9,416.2,611.9,416.2
				L611.9,416.2z M611.4,417.9c0,0,0.1,0,0.1,0.1c-0.1,0-0.1,0.1-0.1,0.1s-0.1,0-0.1-0.1L611.4,417.9z M611,417.7
				C611.1,417.7,611.1,417.7,611,417.7c0,0.1,0,0.2-0.1,0.2l0,0l0,0l0,0c0,0-0.1-0.1,0-0.1C610.9,417.7,610.9,417.7,611,417.7z
				 M610.6,415.4L610.6,415.4L610.6,415.4L610.6,415.4z M609.6,414.5C609.7,414.5,609.7,414.5,609.6,414.5
				C609.7,414.5,609.7,414.5,609.6,414.5C609.7,414.5,609.7,414.5,609.6,414.5c0.1,0.1,0,0.2,0.2,0.3c-0.2,0-0.3,0-0.3-0.2
				C609.5,414.6,609.6,414.5,609.6,414.5z M609.3,418.6L609.3,418.6L609.3,418.6L609.3,418.6L609.3,418.6L609.3,418.6
				c-0.1,0.1-0.2,0.1-0.3,0C609,418.5,609.2,418.6,609.3,418.6z M608.1,411c0.1,0,0.1,0.1,0.1,0.2c0,0.1-0.1,0.2-0.2,0.2
				c-0.1,0-0.1-0.1-0.1-0.2C607.9,411.1,608,411,608.1,411z M607.6,415C607.6,415,607.6,415.1,607.6,415
				C607.6,415.1,607.6,415,607.6,415L607.6,415z M606.2,408.7L606.2,408.7C606.3,408.7,606.3,408.7,606.2,408.7
				c0,0.1-0.2,0.1-0.2,0.1C606.1,408.6,606.2,408.7,606.2,408.7z M605.7,407.3C605.7,407.3,605.6,407.3,605.7,407.3
				C605.6,407.3,605.7,407.3,605.7,407.3z M604.5,413.5L604.5,413.5L604.5,413.5L604.5,413.5z M602,401.5L602,401.5L602,401.5
				L602,401.5z"/>
		</g>
	</g>
</g>
</svg>
